<svg version="1.1" id="Layer_1" xmlns="http://www.w3.org/2000/svg" xmlns:xlink="http://www.w3.org/1999/xlink" x="0px" y="0px"
	 width="100%" viewBox="0 0 1338 432" enable-background="new 0 0 1338 432" xml:space="preserve">
<path fill="#FFFFFF" opacity="1.000000" stroke="none" 
	d="
M873.000000,433.000000 
	C582.000000,433.000000 291.500031,433.000000 1.000039,433.000000 
	C1.000026,289.000031 1.000026,145.000046 1.000013,1.000058 
	C446.999969,1.000039 892.999939,1.000039 1339.000000,1.000019 
	C1339.000000,144.999939 1339.000000,288.999878 1339.000000,432.999908 
	C1183.833374,433.000000 1028.666626,433.000000 873.000000,433.000000 
M853.827087,231.003738 
	C856.203064,227.988098 858.578979,224.972443 861.000000,221.990082 
	C861.000000,221.990082 860.955200,221.965195 861.597717,221.730255 
	C866.611328,214.385620 872.378113,207.432007 876.445618,199.596222 
	C881.396851,190.058105 885.515625,179.976959 888.920044,169.772263 
	C894.328186,153.561218 898.601929,136.942291 897.822815,119.650978 
	C897.458252,111.558968 896.196289,103.182686 889.023560,97.763336 
	C886.892273,96.153053 883.697937,95.949860 880.261169,94.913643 
	C873.889648,91.336472 867.331055,91.574478 861.263733,95.116959 
	C855.137512,98.693817 848.981201,102.517715 843.716064,107.217094 
	C825.188904,123.753532 810.831055,143.827774 797.246765,164.398438 
	C773.477905,200.391586 752.744324,238.156998 732.932434,276.435699 
	C728.141357,285.692719 723.494141,295.024231 718.780701,304.321442 
	C718.026672,303.315491 717.899536,302.523041 718.045349,301.784485 
	C721.543884,284.060242 724.513794,266.208496 728.709839,248.649948 
	C737.494690,211.888489 750.032959,176.294052 763.925354,141.186081 
	C769.734558,126.505402 776.263000,112.109871 782.117554,97.446190 
	C783.412842,94.201927 783.854980,90.297119 783.433899,86.849899 
	C783.272400,85.528229 779.536011,84.739143 777.537354,83.527908 
	C771.729004,80.007919 771.708984,79.958618 768.334412,85.632484 
	C767.229858,87.489532 766.142151,89.389206 765.336060,91.386192 
	C755.144470,116.633232 744.442627,141.692917 734.984558,167.213089 
	C720.481262,206.346756 709.103333,246.438187 702.468750,287.703400 
	C700.182556,301.922546 699.326965,316.383331 698.135071,330.760040 
	C697.750305,335.401642 699.597290,339.228516 705.053101,340.799255 
	C706.599426,344.465363 709.530273,345.477234 713.186646,344.946228 
	C718.062561,344.238068 721.252380,341.181854 723.434082,337.048309 
	C733.988403,317.051208 744.744263,297.153992 754.921021,276.965424 
	C775.814880,235.515945 798.671143,195.248367 825.751343,157.488861 
	C836.204651,142.913254 847.062073,128.547653 861.333008,117.448006 
	C866.119446,113.725182 872.317993,111.817978 878.022644,109.912834 
	C878.363525,114.197044 879.539673,118.613617 878.885864,122.740234 
	C877.052490,134.311646 875.228577,145.981216 872.026794,157.220627 
	C863.163391,188.334579 848.090149,215.865921 822.217041,236.252991 
	C816.503723,240.754852 809.432434,243.533295 802.996948,246.210510 
	C803.123291,244.238037 803.198120,242.260651 803.384827,240.293900 
	C804.297180,230.684998 811.485962,225.945465 818.546509,221.340622 
	C822.277161,218.907486 824.092834,215.944473 822.656677,211.834763 
	C821.244324,207.793076 817.558472,207.658966 813.296570,207.736099 
	C811.319153,207.451263 808.997742,206.347473 807.418579,207.010788 
	C794.444946,212.460602 785.904541,221.948959 784.374268,236.177063 
	C783.286865,246.288651 785.173828,253.725693 794.306213,258.683228 
	C797.673645,260.133606 800.952637,262.536591 804.424866,262.859100 
	C815.690002,263.905426 824.333374,257.365204 832.933472,251.422470 
	C836.063110,249.259888 838.402954,245.954193 841.657410,242.772491 
	C845.492188,238.884262 849.326965,234.996033 853.827087,231.003738 
M1079.510498,316.577637 
	C1079.668701,312.656036 1079.581543,308.705933 1080.033813,304.818542 
	C1081.139526,295.313782 1081.612671,285.616089 1083.932983,276.396881 
	C1088.780884,257.134277 1094.264038,238.006729 1100.230713,219.058121 
	C1105.252075,203.111908 1111.271362,187.477325 1116.974854,171.750458 
	C1118.364136,167.919434 1120.494019,164.485672 1125.167725,164.019409 
	C1138.812500,162.658096 1152.455200,161.271515 1166.110718,160.023865 
	C1181.748169,158.595139 1197.403687,157.364212 1213.039917,155.922791 
	C1218.568237,155.413162 1221.366455,152.331161 1220.990967,147.721802 
	C1220.680908,143.917145 1217.464478,142.102676 1210.012817,141.976044 
	C1182.495117,143.770050 1154.977539,145.564041 1126.962891,147.390427 
	C1127.828247,145.096664 1128.413818,143.208054 1129.233643,141.427338 
	C1133.684692,131.759308 1138.382568,122.198593 1142.561279,112.415596 
	C1143.731201,109.676567 1143.916992,106.248116 1143.536865,103.265594 
	C1143.408081,102.255058 1140.127563,101.681679 1138.325317,100.828201 
	C1137.757446,100.559319 1137.244751,100.088875 1136.824341,99.608078 
	C1134.614990,97.081604 1132.155029,97.820724 1130.239990,99.614853 
	C1128.212036,101.514702 1126.336792,103.786766 1125.058228,106.241760 
	C1118.841797,118.178108 1112.609131,130.118088 1106.883057,142.292267 
	C1104.295654,147.793259 1100.879272,151.241425 1094.714966,151.860962 
	C1085.134644,152.823807 1075.543945,153.756058 1066.009399,155.075333 
	C1059.458008,155.981873 1052.976562,157.438797 1046.498779,158.814423 
	C1043.249756,159.504395 1041.907593,162.424469 1044.460449,164.144135 
	C1048.379028,166.783783 1053.170044,169.308960 1057.716309,169.554153 
	C1064.218994,169.904892 1070.833252,168.143127 1077.402710,167.305008 
	C1083.412354,166.538330 1089.425781,165.800262 1096.245361,164.948730 
	C1095.764282,167.394043 1095.626953,169.158875 1095.066406,170.777161 
	C1089.734985,186.171051 1084.343384,201.544220 1078.930908,216.909851 
	C1078.388794,218.448547 1077.997437,220.424240 1076.850830,221.303574 
	C1069.473389,226.961304 1061.997803,232.504166 1054.356934,237.799774 
	C1050.907593,240.190506 1047.811768,239.632538 1045.989746,235.262756 
	C1043.390015,229.027939 1040.070068,223.994644 1032.708618,221.743805 
	C1028.220825,220.371552 1024.629272,219.743179 1021.161621,222.613358 
	C1016.333801,226.609283 1011.862366,231.035782 1006.670593,234.821518 
	C1007.135803,232.824722 1007.400879,230.754135 1008.104980,228.845444 
	C1009.978149,223.767563 1012.453552,218.877686 1013.936646,213.697510 
	C1016.551636,204.563477 1014.360962,201.970551 1004.298523,201.726608 
	C1001.077148,200.181030 998.754150,201.419327 997.259155,204.294220 
	C995.420288,207.830154 993.865479,211.512650 992.109924,215.093567 
	C991.102539,217.148529 990.390991,219.643509 988.773682,221.055695 
	C979.639404,229.031479 970.425659,236.934326 960.923645,244.464096 
	C955.339417,248.889328 949.170227,252.576431 943.264099,256.595520 
	C942.668640,256.093597 942.073181,255.591675 941.477783,255.089752 
	C943.660400,246.995148 945.181274,238.645966 948.174988,230.863327 
	C953.124451,217.996429 959.181641,205.559189 964.383301,192.782654 
	C965.369507,190.360275 965.571167,186.624313 964.366028,184.496033 
	C961.136292,178.792404 951.503296,179.144012 947.661316,184.497650 
	C942.617615,191.525665 937.296082,198.356354 932.336243,205.441422 
	C930.156128,208.555695 928.284912,209.108139 924.561829,207.543594 
	C911.230225,201.941315 904.779114,203.479431 894.732849,213.867325 
	C892.424561,216.254166 890.221985,218.779236 888.245056,221.444229 
	C880.012878,232.541367 873.910583,244.639343 871.483459,258.377655 
	C870.678711,262.932892 870.516724,267.510254 874.360718,270.893616 
	C881.929626,277.555603 889.238770,278.067993 896.766357,271.449127 
	C904.733521,264.443634 911.998413,256.632812 919.470520,249.075317 
	C921.378479,247.145599 922.910522,244.844315 924.970825,242.269363 
	C924.970825,249.328278 924.636047,254.810562 925.116272,260.220490 
	C925.345825,262.806244 926.452759,266.044617 928.317322,267.623322 
	C934.999329,273.281128 942.731628,275.263031 950.918152,270.910675 
	C956.622925,267.877716 962.047180,264.309937 967.544617,260.897125 
	C970.106750,259.306519 972.545349,257.516754 976.246704,254.995087 
	C974.998718,259.534546 973.927734,262.487152 973.394592,265.533905 
	C971.169373,278.250549 968.963806,290.975189 967.136353,303.752014 
	C966.862793,305.664673 968.067566,308.524811 969.562744,309.833099 
	C978.236938,317.422882 983.507812,316.467285 989.508484,306.637360 
	C990.287903,305.360535 990.927673,303.996307 991.598572,302.655792 
	C998.296021,289.273773 1004.598206,275.674164 1011.817993,262.580444 
	C1016.477661,254.129623 1022.479675,246.418961 1028.395264,237.609436 
	C1040.008057,250.793427 1051.948853,258.773987 1069.329834,248.902374 
	C1068.782471,252.285507 1068.589111,254.039459 1068.207886,255.751587 
	C1063.973755,274.762329 1060.063232,293.839966 1061.058960,313.461090 
	C1061.413086,320.437622 1062.334229,327.587555 1070.054810,331.852234 
	C1075.061523,338.230286 1083.094360,339.198853 1090.172119,332.965149 
	C1096.697144,327.218231 1102.635010,320.628235 1107.971924,313.743286 
	C1121.365845,296.464325 1134.252197,278.792297 1147.428101,261.342804 
	C1148.234863,260.274261 1149.789551,259.770233 1151.353760,259.579987 
	C1161.408203,267.889130 1169.963745,270.287415 1180.073975,262.761322 
	C1187.511475,257.224762 1194.684814,251.246460 1201.419189,244.876526 
	C1208.461914,238.214859 1214.838989,230.849472 1222.163452,223.096817 
	C1221.900269,226.310654 1221.795776,228.732300 1221.489990,231.128265 
	C1219.683838,245.281082 1217.595947,259.402466 1216.057617,273.583771 
	C1214.419189,288.689758 1212.257324,303.201996 1202.758545,316.169830 
	C1193.327393,329.045502 1186.624390,343.691711 1181.869751,359.053741 
	C1179.317871,367.298401 1183.651123,376.784332 1191.039551,379.892090 
	C1192.609375,383.170013 1195.246582,384.084625 1198.784546,384.062347 
	C1205.564453,384.019653 1208.833618,379.377991 1211.672607,374.477631 
	C1219.357910,361.211853 1222.766235,346.424225 1225.880859,331.642639 
	C1228.417847,319.602356 1230.281982,307.466827 1238.279663,297.415131 
	C1255.102051,276.272186 1271.781860,255.015381 1288.664062,233.920471 
	C1290.997803,231.004501 1293.134644,228.129074 1291.513428,224.522995 
	C1289.743530,220.586044 1286.145996,219.331741 1281.291504,219.801086 
	C1277.421387,217.982452 1275.297485,220.846405 1273.343384,223.142502 
	C1263.429810,234.791534 1253.677734,246.577988 1243.869507,258.316711 
	C1241.395020,261.278290 1238.922729,264.241516 1236.104614,267.616882 
	C1235.468994,266.256104 1235.062256,265.812836 1235.110107,265.425781 
	C1236.531128,253.928497 1238.100708,242.448700 1239.427368,230.940857 
	C1240.735718,219.590942 1241.878296,208.220322 1242.939453,196.844391 
	C1243.298950,192.990921 1241.456543,190.549911 1237.420898,189.931229 
	C1236.343384,189.766052 1235.182861,189.287018 1234.338623,188.606857 
	C1231.012451,185.927155 1228.182373,186.695282 1225.673584,189.690567 
	C1221.404419,194.787811 1217.305298,200.030075 1212.957886,205.058609 
	C1202.852295,216.747543 1192.928711,228.616821 1182.332520,239.847931 
	C1178.036377,244.401428 1172.181152,247.483917 1166.314453,251.761383 
	C1166.169678,249.236069 1165.864380,248.050400 1166.075439,246.965134 
	C1168.576416,234.103851 1170.777588,221.165955 1177.614136,209.610992 
	C1181.491821,203.056946 1181.111328,202.419876 1173.812988,199.783569 
	C1173.206055,199.564346 1172.651489,199.141251 1172.137939,198.731094 
	C1168.584595,195.893341 1165.419067,196.812515 1163.242554,200.268829 
	C1160.159546,205.164795 1156.803711,210.099808 1154.931763,215.492706 
	C1152.727783,221.842529 1149.135010,226.940338 1144.726074,231.719406 
	C1143.375000,233.183884 1142.047363,234.688522 1140.873169,236.294724 
	C1127.722656,254.282501 1114.728149,272.385925 1101.426025,290.260498 
	C1094.597168,299.436829 1087.234253,308.215790 1079.510498,316.577637 
M397.656647,282.500092 
	C397.656647,257.131744 397.656647,231.763382 397.656647,206.395020 
	C399.468262,207.506958 400.350555,208.835968 401.211212,210.178833 
	C420.597412,240.427063 439.966278,270.686462 459.408691,300.898529 
	C460.410431,302.455170 462.009430,304.739075 463.378540,304.773621 
	C475.467468,305.078491 487.567322,304.950531 499.752716,304.950531 
	C499.752716,250.236908 499.752716,196.150253 499.752716,141.790878 
	C487.110687,141.790878 474.700195,141.790878 461.763855,141.790878 
	C461.763855,174.772202 461.763855,207.446548 461.763855,241.409683 
	C460.067627,238.985321 459.095703,237.695801 458.227112,236.340103 
	C438.935669,206.230728 419.672028,176.103485 400.330841,146.026123 
	C399.231049,144.315750 397.551331,141.745926 396.078674,141.702362 
	C384.130981,141.349075 372.168274,141.503922 360.220978,141.503922 
	C360.220978,196.290039 360.220978,250.517578 360.220978,304.678223 
	C372.791077,304.678223 385.035431,304.678223 397.656647,304.678223 
	C397.656647,297.435303 397.656647,290.467651 397.656647,282.500092 
M225.687943,292.478821 
	C225.687943,296.576141 225.687943,300.673462 225.687943,304.719238 
	C257.230865,304.719238 288.157959,304.719238 319.278625,304.719238 
	C319.278625,293.719788 319.278625,282.964325 319.278625,271.902191 
	C300.525787,271.902191 282.057587,271.902191 263.442139,271.902191 
	C263.442139,261.148407 263.442139,250.702774 263.442139,239.692795 
	C281.297943,239.692795 299.042511,239.692795 316.900940,239.692795 
	C316.900940,228.367157 316.900940,217.607361 316.900940,206.258774 
	C298.907684,206.258774 281.170532,206.258774 263.471710,206.258774 
	C263.471710,195.538818 263.471710,185.410934 263.471710,174.841064 
	C282.068420,174.841064 300.493683,174.841064 319.166779,174.841064 
	C319.166779,163.531662 319.166779,152.669388 319.166779,141.796707 
	C287.866791,141.796707 256.968170,141.796707 225.687988,141.796707 
	C225.687988,191.906143 225.687988,241.695435 225.687943,292.478821 
M555.118469,255.229294 
	C554.423462,255.442749 553.366638,255.437943 553.086792,255.901855 
	C547.084473,265.850555 541.169189,275.851746 534.812378,286.557922 
	C539.031616,289.328552 542.879150,292.153625 546.995361,294.509216 
	C572.323364,309.003784 599.036743,312.447754 626.714233,302.834503 
	C653.617554,293.490082 666.915588,261.295410 653.925354,237.735275 
	C647.337280,225.786606 636.368408,218.416718 624.466797,212.395798 
	C613.657104,206.927307 602.430847,202.154587 592.110046,195.886642 
	C583.491638,190.652542 584.907349,179.018082 594.403931,175.430984 
	C599.299683,173.581711 605.369873,172.616760 610.362366,173.722412 
	C620.084656,175.875488 629.421753,179.767731 639.307922,183.069763 
	C643.841553,174.073608 648.812073,164.210526 653.839905,154.233673 
	C643.675659,146.456100 632.319214,142.845016 620.576233,140.349106 
	C599.336914,135.834854 579.869080,138.953857 563.535278,154.448425 
	C547.829651,169.347153 544.798462,193.136551 556.522217,210.937271 
	C563.147949,220.997528 572.988464,227.139038 583.563477,232.382767 
	C592.777527,236.951645 602.204346,241.285797 610.795166,246.865997 
	C620.572876,253.217148 618.808899,266.281250 607.961243,270.594543 
	C600.346069,273.622498 592.068604,274.427795 584.584534,271.064148 
	C574.658325,266.602966 565.309021,260.858368 555.118469,255.229294 
M177.484924,271.866455 
	C162.404083,271.866455 147.323227,271.866455 131.985596,271.866455 
	C131.985596,228.208832 131.985596,185.120895 131.985596,141.849380 
	C119.335602,141.849380 106.951813,141.849380 94.579803,141.849380 
	C94.579803,196.413330 94.579803,250.604416 94.579803,304.586975 
	C125.947952,304.586975 156.991791,304.586975 188.026352,304.586975 
	C188.026352,293.604797 188.026352,282.998169 188.026352,271.866455 
	C184.711929,271.866455 181.594818,271.866455 177.484924,271.866455 
z"/>
<path fill="#EF86BF" opacity="1.000000" stroke="none" 
	d="
M1007.238342,235.277985 
	C1011.862366,231.035782 1016.333801,226.609283 1021.161621,222.613358 
	C1024.629272,219.743179 1028.220825,220.371552 1032.708618,221.743805 
	C1040.070068,223.994644 1043.390015,229.027939 1045.989746,235.262756 
	C1047.811768,239.632538 1050.907593,240.190506 1054.356934,237.799774 
	C1061.997803,232.504166 1069.473389,226.961304 1076.850830,221.303574 
	C1077.997437,220.424240 1078.388794,218.448547 1078.930908,216.909851 
	C1084.343384,201.544220 1089.734985,186.171051 1095.066406,170.777161 
	C1095.626953,169.158875 1095.764282,167.394043 1096.245361,164.948730 
	C1089.425781,165.800262 1083.412354,166.538330 1077.402710,167.305008 
	C1070.833252,168.143127 1064.218994,169.904892 1057.716309,169.554153 
	C1053.170044,169.308960 1048.379028,166.783783 1044.460449,164.144135 
	C1041.907593,162.424469 1043.249756,159.504395 1046.498779,158.814423 
	C1052.976562,157.438797 1059.458008,155.981873 1066.009399,155.075333 
	C1075.543945,153.756058 1085.134644,152.823807 1094.714966,151.860962 
	C1100.879272,151.241425 1104.295654,147.793259 1106.883057,142.292267 
	C1112.609131,130.118088 1118.841797,118.178108 1125.058228,106.241760 
	C1126.336792,103.786766 1128.212036,101.514702 1130.239990,99.614853 
	C1132.155029,97.820724 1134.614990,97.081604 1136.824341,99.608078 
	C1137.244751,100.088875 1137.757446,100.559319 1138.325317,100.828201 
	C1140.127563,101.681679 1143.408081,102.255058 1143.536865,103.265594 
	C1143.916992,106.248116 1143.731201,109.676567 1142.561279,112.415596 
	C1138.382568,122.198593 1133.684692,131.759308 1129.233643,141.427338 
	C1128.413818,143.208054 1127.828247,145.096664 1126.962891,147.390427 
	C1154.977539,145.564041 1182.495117,143.770050 1210.635498,142.316940 
	C1213.201416,144.075775 1215.144531,145.493729 1217.054932,147.282104 
	C1216.323120,149.391876 1215.624023,151.131226 1214.603882,152.893829 
	C1213.853638,152.925262 1213.424438,152.933426 1212.771484,152.688583 
	C1211.339355,152.908035 1210.130859,153.380493 1208.530518,153.882202 
	C1207.090820,153.924789 1206.043091,153.938141 1204.756470,153.688965 
	C1202.983887,153.896210 1201.450195,154.365967 1199.494629,154.864502 
	C1197.380371,154.912674 1195.687744,154.932053 1193.740967,154.683319 
	C1191.631226,154.891571 1189.775757,155.367905 1187.510742,155.872253 
	C1185.732422,155.914200 1184.363892,155.928146 1182.742310,155.676270 
	C1180.657104,155.641525 1178.824707,155.872589 1176.614990,156.134674 
	C1174.490112,156.428482 1172.742676,156.691269 1170.756836,156.691162 
	C1168.984497,156.897858 1167.450562,157.367432 1165.494873,157.865662 
	C1163.380493,157.913177 1161.687866,157.932053 1159.759277,157.688797 
	C1158.013306,157.645645 1156.503296,157.864624 1154.611084,158.085266 
	C1152.484375,158.372086 1150.739746,158.657257 1148.742432,158.676392 
	C1146.657349,158.641449 1144.824829,158.872513 1142.629272,159.131088 
	C1140.841309,159.416260 1139.416626,159.673920 1137.735596,159.667053 
	C1135.625610,159.881088 1133.771851,160.359650 1131.508545,160.866516 
	C1129.731201,160.909409 1128.363159,160.923996 1126.795166,160.695877 
	C1125.702759,160.917801 1124.810547,161.382431 1123.548462,161.881790 
	C1122.437622,161.905884 1121.696777,161.895248 1120.966064,161.542206 
	C1121.606201,160.183731 1122.235962,159.167648 1122.837891,158.196701 
	C1114.635742,157.737854 1111.096191,159.720184 1107.791992,168.668137 
	C1101.263062,186.349487 1095.244263,204.219208 1088.864258,222.346436 
	C1087.137817,228.121017 1085.561646,233.560196 1083.708252,239.243652 
	C1080.765259,249.711975 1077.519165,259.827423 1075.580933,270.187561 
	C1073.159546,283.129333 1071.632324,296.250916 1070.084961,309.338135 
	C1069.362915,315.444977 1070.782593,317.824524 1074.424927,319.312042 
	C1074.284546,317.361359 1073.843994,315.381470 1074.078979,313.485382 
	C1074.393066,310.951996 1075.231445,308.483612 1076.119385,305.998352 
	C1076.577515,306.009430 1076.760864,306.009491 1076.953857,306.466797 
	C1076.960571,309.899445 1076.819702,312.883301 1077.001953,315.847321 
	C1077.129883,317.928040 1077.726318,319.913818 1080.112671,317.174316 
	C1087.234253,308.215790 1094.597168,299.436829 1101.426025,290.260498 
	C1114.728149,272.385925 1127.722656,254.282501 1140.873169,236.294724 
	C1142.047363,234.688522 1143.375000,233.183884 1144.726074,231.719406 
	C1149.135010,226.940338 1152.727783,221.842529 1154.931763,215.492706 
	C1156.803711,210.099808 1160.159546,205.164795 1163.242554,200.268829 
	C1165.419067,196.812515 1168.584595,195.893341 1172.137939,198.731094 
	C1172.651489,199.141251 1173.206055,199.564346 1173.812988,199.783569 
	C1181.111328,202.419876 1181.491821,203.056946 1177.614136,209.610992 
	C1170.777588,221.165955 1168.576416,234.103851 1166.075439,246.965134 
	C1165.864380,248.050400 1166.169678,249.236069 1166.314453,251.761383 
	C1172.181152,247.483917 1178.036377,244.401428 1182.332520,239.847931 
	C1192.928711,228.616821 1202.852295,216.747543 1212.957886,205.058609 
	C1217.305298,200.030075 1221.404419,194.787811 1225.673584,189.690567 
	C1228.182373,186.695282 1231.012451,185.927155 1234.338623,188.606857 
	C1235.182861,189.287018 1236.343384,189.766052 1237.420898,189.931229 
	C1241.456543,190.549911 1243.298950,192.990921 1242.939453,196.844391 
	C1241.878296,208.220322 1240.735718,219.590942 1239.427368,230.940857 
	C1238.100708,242.448700 1236.531128,253.928497 1235.110107,265.425781 
	C1235.062256,265.812836 1235.468994,266.256104 1236.104614,267.616882 
	C1238.922729,264.241516 1241.395020,261.278290 1243.869507,258.316711 
	C1253.677734,246.577988 1263.429810,234.791534 1273.343384,223.142502 
	C1275.297485,220.846405 1277.421387,217.982452 1281.761230,220.279465 
	C1282.895874,221.462463 1283.517456,222.215256 1284.234863,222.861862 
	C1285.784546,224.258728 1288.935181,226.187698 1288.681274,226.859528 
	C1287.797607,229.196915 1285.741211,231.090820 1284.116333,232.782379 
	C1285.107422,230.635666 1286.112793,228.859909 1287.118164,227.084167 
	C1286.761108,226.629425 1286.404175,226.174683 1286.047241,225.719940 
	C1284.325684,226.709106 1282.126953,227.309280 1280.955444,228.746735 
	C1267.256958,245.556015 1253.596069,262.398956 1240.172729,279.428223 
	C1232.296021,289.420990 1223.384521,298.952576 1220.114014,311.710266 
	C1217.325073,322.589935 1215.965210,333.860626 1212.792847,344.610016 
	C1210.001221,354.069489 1205.709961,363.105011 1201.774170,372.195007 
	C1200.811157,374.419159 1198.649292,376.124268 1196.682373,378.497803 
	C1202.866455,379.877228 1205.574219,376.062836 1207.034912,372.509613 
	C1211.418823,361.845612 1215.484741,351.008118 1218.886230,339.994781 
	C1222.436035,328.501373 1224.485962,316.525177 1228.374878,305.165161 
	C1230.056030,300.254944 1234.707520,296.361725 1237.984985,292.358398 
	C1228.691895,304.375305 1225.546021,318.171387 1222.604004,332.462921 
	C1219.886841,345.663116 1215.266113,358.613312 1210.163818,371.135803 
	C1206.078491,381.162689 1202.317505,382.057556 1192.340698,379.126770 
	C1191.894653,378.995758 1191.355469,379.181610 1190.859741,379.219879 
	C1183.651123,376.784332 1179.317871,367.298401 1181.869751,359.053741 
	C1186.624390,343.691711 1193.327393,329.045502 1202.758545,316.169830 
	C1212.257324,303.201996 1214.419189,288.689758 1216.057617,273.583771 
	C1217.595947,259.402466 1219.683838,245.281082 1221.489990,231.128265 
	C1221.795776,228.732300 1221.900269,226.310654 1222.163452,223.096817 
	C1214.838989,230.849472 1208.461914,238.214859 1201.419189,244.876526 
	C1194.684814,251.246460 1187.511475,257.224762 1180.073975,262.761322 
	C1169.963745,270.287415 1161.408203,267.889130 1151.069824,258.967651 
	C1150.324219,257.361755 1149.862671,256.368164 1149.352661,255.270279 
	C1148.222046,255.581451 1147.174316,255.869781 1146.113647,255.775421 
	C1148.124634,252.121384 1150.466919,248.912338 1148.104858,244.289963 
	C1143.503296,250.551239 1139.284424,256.655243 1134.697754,262.469025 
	C1116.366577,285.703918 1101.808594,312.021942 1078.811401,331.838745 
	C1081.203613,331.427185 1083.528320,330.652405 1085.800293,329.745422 
	C1087.900024,328.907166 1089.943237,327.927277 1091.879639,327.324646 
	C1086.633301,332.754364 1081.140503,336.204956 1073.695435,332.122040 
	C1072.589355,331.515472 1071.167480,331.484619 1069.891724,331.187408 
	C1062.334229,327.587555 1061.413086,320.437622 1061.058960,313.461090 
	C1060.063232,293.839966 1063.973755,274.762329 1068.207886,255.751587 
	C1068.589111,254.039459 1068.782471,252.285507 1069.329834,248.902374 
	C1051.948853,258.773987 1040.008057,250.793427 1028.395264,237.609436 
	C1022.479675,246.418961 1016.477661,254.129623 1011.817993,262.580444 
	C1004.598206,275.674164 998.296021,289.273773 991.598572,302.655792 
	C990.927673,303.996307 990.287903,305.360535 989.508484,306.637360 
	C983.507812,316.467285 978.236938,317.422882 969.562744,309.833099 
	C968.067566,308.524811 966.862793,305.664673 967.136353,303.752014 
	C968.963806,290.975189 971.169373,278.250549 973.394592,265.533905 
	C973.927734,262.487152 974.998718,259.534546 976.246704,254.995087 
	C972.545349,257.516754 970.106750,259.306519 967.544617,260.897125 
	C962.047180,264.309937 956.622925,267.877716 950.918152,270.910675 
	C942.731628,275.263031 934.999329,273.281128 928.317322,267.623322 
	C926.452759,266.044617 925.345825,262.806244 925.116272,260.220490 
	C924.636047,254.810562 924.970825,249.328278 924.970825,242.269363 
	C922.910522,244.844315 921.378479,247.145599 919.470520,249.075317 
	C911.998413,256.632812 904.733521,264.443634 896.766357,271.449127 
	C889.238770,278.067993 881.929626,277.555603 874.360718,270.893616 
	C870.516724,267.510254 870.678711,262.932892 871.483459,258.377655 
	C873.910583,244.639343 880.012878,232.541367 888.245056,221.444229 
	C890.221985,218.779236 892.424561,216.254166 894.732849,213.867325 
	C904.779114,203.479431 911.230225,201.941315 924.561829,207.543594 
	C928.284912,209.108139 930.156128,208.555695 932.336243,205.441422 
	C937.296082,198.356354 942.617615,191.525665 947.661316,184.497650 
	C951.503296,179.144012 961.136292,178.792404 964.366028,184.496033 
	C965.571167,186.624313 965.369507,190.360275 964.383301,192.782654 
	C959.181641,205.559189 953.124451,217.996429 948.174988,230.863327 
	C945.181274,238.645966 943.660400,246.995148 941.477783,255.089752 
	C942.073181,255.591675 942.668640,256.093597 943.264099,256.595520 
	C949.170227,252.576431 955.339417,248.889328 960.923645,244.464096 
	C970.425659,236.934326 979.639404,229.031479 988.773682,221.055695 
	C990.390991,219.643509 991.102539,217.148529 992.109924,215.093567 
	C993.865479,211.512650 995.420288,207.830154 997.259155,204.294220 
	C998.754150,201.419327 1001.077148,200.181030 1004.775208,202.204193 
	C1005.741272,203.336731 1006.153259,204.480316 1006.731873,204.571930 
	C1013.337830,205.618057 1012.538391,209.830994 1010.809448,214.204880 
	C1008.195312,220.818359 1005.314636,227.325958 1002.605164,233.902405 
	C1000.273438,239.561844 998.022705,245.254669 995.736206,250.932724 
	C996.115723,251.100632 996.495300,251.268555 996.874817,251.436462 
	C1000.329346,246.050293 1003.783813,240.664139 1007.238342,235.277985 
M1158.980835,241.915222 
	C1158.985352,251.418030 1158.985352,251.418030 1162.131226,252.655273 
	C1163.076294,247.083206 1164.018921,241.526001 1165.269897,235.292404 
	C1165.840942,232.860382 1166.411987,230.428375 1167.557251,227.463104 
	C1169.876099,221.020752 1172.242554,214.594818 1174.475220,208.122665 
	C1174.941406,206.770844 1174.912720,205.248260 1175.112061,203.804367 
	C1173.737793,204.543915 1171.646973,204.943893 1171.108887,206.079590 
	C1168.177490,212.266479 1165.628540,218.634537 1162.417847,225.449646 
	C1161.278564,230.632889 1160.139282,235.816147 1158.980835,241.915222 
M1000.147888,267.657623 
	C992.839905,281.876343 985.531982,296.095062 978.224060,310.313812 
	C978.709290,310.775970 979.194580,311.238129 979.679810,311.700317 
	C981.718262,309.925995 984.478943,308.538727 985.672363,306.311584 
	C991.401794,295.619812 996.550476,284.618073 1002.212830,273.888702 
	C1006.923462,264.962738 1011.754272,256.068726 1017.131775,247.538773 
	C1020.064087,242.887421 1024.243774,239.022430 1027.889648,234.769180 
	C1024.066162,232.368286 1022.253723,232.695496 1018.730530,237.998215 
	C1012.413452,247.506042 1006.550232,257.315460 1000.147888,267.657623 
M1235.910645,194.853302 
	C1234.272583,208.457855 1232.637573,222.062790 1230.995483,235.666855 
	C1229.491211,248.128845 1227.941162,260.585602 1226.531128,273.058228 
	C1226.394531,274.266724 1227.104614,275.570923 1227.421631,276.830688 
	C1228.560913,275.887299 1230.418457,275.120331 1230.701782,273.966675 
	C1231.485107,270.779572 1231.606201,267.430359 1231.997437,264.146210 
	C1233.150635,254.466309 1234.293945,244.785156 1235.467285,235.107681 
	C1236.958618,222.807938 1238.553101,210.520004 1239.931152,198.207718 
	C1240.309814,194.825317 1239.395996,194.121262 1235.910645,194.853302 
M938.029175,235.680527 
	C937.017761,242.027420 935.872498,248.358398 935.114319,254.735413 
	C934.972351,255.929672 936.379089,257.308075 937.071106,258.601471 
	C937.711975,257.255646 938.643738,255.970413 938.939087,254.552628 
	C939.812012,250.362534 940.163086,246.052292 941.200684,241.909882 
	C945.374512,225.246155 952.437622,209.724854 960.162170,194.458405 
	C961.362183,192.086700 961.607483,189.231903 962.294250,186.600494 
	C961.461792,186.318115 960.629395,186.035751 959.796936,185.753372 
	C950.346985,201.073929 943.887817,217.798370 938.029175,235.680527 
M1001.496582,219.007980 
	C992.197144,238.859177 984.381775,259.186462 981.225342,281.077972 
	C982.675720,280.167877 983.456543,278.980927 983.934143,277.682404 
	C985.702698,272.873688 987.237488,267.975922 989.101868,263.206116 
	C994.952576,248.237854 1000.980713,233.338684 1006.775391,218.349060 
	C1007.965637,215.270187 1008.442261,211.915421 1009.247803,208.687836 
	C1008.465393,208.437164 1007.682983,208.186478 1006.900574,207.935806 
	C1005.216492,211.402832 1003.532410,214.869858 1001.496582,219.007980 
M1193.473389,243.008209 
	C1184.395264,249.993362 1175.317139,256.978546 1166.412109,263.830536 
	C1170.708374,264.491974 1174.689575,262.662964 1178.576294,259.945923 
	C1193.079102,249.807281 1205.255371,237.234863 1216.614868,223.812851 
	C1219.441406,220.473114 1221.884888,216.809204 1224.504517,213.294312 
	C1223.708130,212.626724 1222.911865,211.959137 1222.115479,211.291550 
	C1211.757568,220.740067 1204.188965,232.919006 1193.473389,243.008209 
M900.061584,244.559250 
	C906.225342,237.394852 912.455627,230.285431 918.477173,223.003433 
	C919.325562,221.977463 919.153870,220.107941 919.454285,218.628845 
	C918.062805,218.720413 916.276062,218.291077 915.348999,218.994659 
	C911.548462,221.878845 907.693909,224.811523 904.442139,228.273788 
	C898.053955,235.075500 893.607422,243.076340 890.988647,251.994110 
	C891.543579,252.484009 892.098511,252.973923 892.653442,253.463837 
	C894.958008,250.664032 897.262512,247.864227 900.061584,244.559250 
M925.189087,237.641495 
	C926.572449,235.439621 927.955872,233.237732 929.339233,231.035858 
	C928.726746,230.540253 928.114197,230.044647 927.501648,229.549026 
	C913.301636,243.868530 901.004395,260.188965 884.726807,272.729797 
	C887.988342,272.236511 891.543518,271.643005 893.682434,269.580688 
	C904.281860,259.360901 914.507385,248.753357 925.189087,237.641495 
M903.001526,220.474350 
	C891.817749,230.774475 885.051086,243.436081 882.209229,258.394318 
	C886.287354,259.876740 886.907104,257.171936 887.559814,254.809921 
	C891.858337,239.254578 900.352356,226.597656 913.375488,216.996918 
	C914.026367,216.517059 914.273438,215.489304 914.935852,214.312958 
	C909.479797,213.799042 906.525940,216.950699 903.001526,220.474350 
M1131.808472,117.231255 
	C1127.826294,125.825493 1123.754028,134.380371 1119.959717,143.056839 
	C1119.396851,144.344009 1120.145874,146.204926 1120.287964,147.800415 
	C1121.511963,146.765137 1123.171509,145.964722 1123.879639,144.651337 
	C1126.155518,140.430191 1128.116455,136.036453 1130.131958,131.678299 
	C1133.531738,124.326309 1136.956177,116.983360 1140.165771,109.548401 
	C1140.629517,108.474319 1139.958496,106.910400 1139.812622,105.573158 
	C1138.635132,106.214043 1136.963989,106.560860 1136.373657,107.551605 
	C1134.679443,110.394737 1133.422974,113.498581 1131.808472,117.231255 
M956.618652,260.155396 
	C951.060730,263.296906 945.502869,266.438446 939.879700,269.616821 
	C950.797852,270.696503 979.423523,251.250702 980.260315,241.441635 
	C972.295227,247.819595 964.784546,253.833771 956.618652,260.155396 
M1197.477539,346.041962 
	C1195.512573,350.964020 1193.425659,355.843506 1191.682373,360.842834 
	C1191.318848,361.885254 1192.225098,363.370544 1192.546265,364.651764 
	C1193.606812,363.908997 1195.251221,363.388885 1195.633301,362.387268 
	C1198.113281,355.887207 1200.388184,349.305145 1202.553833,342.692139 
	C1202.972900,341.412415 1202.614014,339.877960 1202.614014,338.460999 
	C1202.219482,338.421326 1201.824951,338.381622 1201.430420,338.341919 
	C1200.230591,340.685150 1199.030762,343.028381 1197.477539,346.041962 
M1062.889526,244.472168 
	C1059.527344,246.108063 1056.165161,247.743958 1052.253540,249.647171 
	C1062.502686,250.520294 1072.492554,244.838470 1071.047729,239.431656 
	C1070.886963,239.423615 1070.682251,239.346939 1070.572021,239.417709 
	C1068.197632,240.941498 1065.833618,242.481720 1062.889526,244.472168 
M981.401245,240.484390 
	C981.401245,240.484390 981.522583,240.409164 981.401245,240.484390 
z"/>
<path fill="#020202" opacity="1.000000" stroke="none" 
	d="
M397.656647,283.000061 
	C397.656647,290.467651 397.656647,297.435303 397.656647,304.678223 
	C385.035431,304.678223 372.791077,304.678223 360.220978,304.678223 
	C360.220978,250.517578 360.220978,196.290039 360.220978,141.503922 
	C372.168274,141.503922 384.130981,141.349075 396.078674,141.702362 
	C397.551331,141.745926 399.231049,144.315750 400.330841,146.026123 
	C419.672028,176.103485 438.935669,206.230728 458.227112,236.340103 
	C459.095703,237.695801 460.067627,238.985321 461.763855,241.409683 
	C461.763855,207.446548 461.763855,174.772202 461.763855,141.790878 
	C474.700195,141.790878 487.110687,141.790878 499.752716,141.790878 
	C499.752716,196.150253 499.752716,250.236908 499.752716,304.950531 
	C487.567322,304.950531 475.467468,305.078491 463.378540,304.773621 
	C462.009430,304.739075 460.410431,302.455170 459.408691,300.898529 
	C439.966278,270.686462 420.597412,240.427063 401.211212,210.178833 
	C400.350555,208.835968 399.468262,207.506958 397.656647,206.395020 
	C397.656647,231.763382 397.656647,257.131744 397.656647,283.000061 
z"/>
<path fill="#030303" opacity="1.000000" stroke="none" 
	d="
M225.687958,291.981781 
	C225.687988,241.695435 225.687988,191.906143 225.687988,141.796707 
	C256.968170,141.796707 287.866791,141.796707 319.166779,141.796707 
	C319.166779,152.669388 319.166779,163.531662 319.166779,174.841064 
	C300.493683,174.841064 282.068420,174.841064 263.471710,174.841064 
	C263.471710,185.410934 263.471710,195.538818 263.471710,206.258774 
	C281.170532,206.258774 298.907684,206.258774 316.900940,206.258774 
	C316.900940,217.607361 316.900940,228.367157 316.900940,239.692795 
	C299.042511,239.692795 281.297943,239.692795 263.442139,239.692795 
	C263.442139,250.702774 263.442139,261.148407 263.442139,271.902191 
	C282.057587,271.902191 300.525787,271.902191 319.278625,271.902191 
	C319.278625,282.964325 319.278625,293.719788 319.278625,304.719238 
	C288.157959,304.719238 257.230865,304.719238 225.687943,304.719238 
	C225.687943,300.673462 225.687943,296.576141 225.687958,291.981781 
z"/>
<path fill="#020202" opacity="1.000000" stroke="none" 
	d="
M555.415161,255.447296 
	C565.309021,260.858368 574.658325,266.602966 584.584534,271.064148 
	C592.068604,274.427795 600.346069,273.622498 607.961243,270.594543 
	C618.808899,266.281250 620.572876,253.217148 610.795166,246.865997 
	C602.204346,241.285797 592.777527,236.951645 583.563477,232.382767 
	C572.988464,227.139038 563.147949,220.997528 556.522217,210.937271 
	C544.798462,193.136551 547.829651,169.347153 563.535278,154.448425 
	C579.869080,138.953857 599.336914,135.834854 620.576233,140.349106 
	C632.319214,142.845016 643.675659,146.456100 653.839905,154.233673 
	C648.812073,164.210526 643.841553,174.073608 639.307922,183.069763 
	C629.421753,179.767731 620.084656,175.875488 610.362366,173.722412 
	C605.369873,172.616760 599.299683,173.581711 594.403931,175.430984 
	C584.907349,179.018082 583.491638,190.652542 592.110046,195.886642 
	C602.430847,202.154587 613.657104,206.927307 624.466797,212.395798 
	C636.368408,218.416718 647.337280,225.786606 653.925354,237.735275 
	C666.915588,261.295410 653.617554,293.490082 626.714233,302.834503 
	C599.036743,312.447754 572.323364,309.003784 546.995361,294.509216 
	C542.879150,292.153625 539.031616,289.328552 534.812378,286.557922 
	C541.169189,275.851746 547.084473,265.850555 553.086792,255.901855 
	C553.366638,255.437943 554.423462,255.442749 555.415161,255.447296 
z"/>
<path fill="#EF87BF" opacity="1.000000" stroke="none" 
	d="
M794.000793,258.068054 
	C785.173828,253.725693 783.286865,246.288651 784.374268,236.177063 
	C785.904541,221.948959 794.444946,212.460602 807.418579,207.010788 
	C808.997742,206.347473 811.319153,207.451263 813.688232,208.263092 
	C815.067871,209.510223 815.964172,210.447876 817.060852,210.909943 
	C820.390442,212.312790 821.352844,215.369720 818.627991,217.648117 
	C816.055725,219.798965 812.908081,221.261673 810.050232,222.683472 
	C812.848755,219.711700 815.610596,217.083557 818.372437,214.455429 
	C817.995605,213.938950 817.618835,213.422470 817.242004,212.905991 
	C815.838623,213.393967 814.293335,213.653259 813.061646,214.417831 
	C810.545044,215.979980 808.275330,217.938828 805.764343,219.511581 
	C799.167725,223.643494 795.472900,229.718628 794.220032,237.194885 
	C793.658936,240.542877 793.074463,244.384201 797.462158,247.023132 
	C797.702820,245.435654 797.741089,244.323608 798.049866,243.292618 
	C799.537537,238.325745 798.274963,232.196121 803.990356,229.381897 
	C802.660034,234.478516 801.068726,239.148422 800.169067,243.947983 
	C799.655640,246.687027 800.163391,246.782196 802.986511,247.105347 
	C809.432434,243.533295 816.503723,240.754852 822.217041,236.252991 
	C848.090149,215.865921 863.163391,188.334579 872.026794,157.220627 
	C875.228577,145.981216 877.052490,134.311646 878.885864,122.740234 
	C879.539673,118.613617 878.363525,114.197044 877.948059,109.125946 
	C875.992920,104.113556 873.275513,106.276146 871.042236,107.688980 
	C865.281555,111.333267 859.676147,115.222931 854.032288,118.665863 
	C860.384338,113.217026 866.712769,108.116898 874.377808,101.939590 
	C870.915588,102.541679 868.294067,102.366844 866.362305,103.437019 
	C854.782532,109.851807 845.410889,118.798828 836.582153,128.658386 
	C822.024231,144.915848 809.708130,162.763535 798.098755,181.079620 
	C774.531006,218.262375 753.889221,257.101562 734.202148,296.457520 
	C729.680237,305.497131 724.871399,314.406830 719.842834,323.174561 
	C716.495361,329.011169 712.523682,334.489777 708.442261,340.119080 
	C707.015625,340.105011 705.978149,340.100494 704.940613,340.095978 
	C699.597290,339.228516 697.750305,335.401642 698.135071,330.760040 
	C699.326965,316.383331 700.182556,301.922546 702.468750,287.703400 
	C709.103333,246.438187 720.481262,206.346756 734.984558,167.213089 
	C744.442627,141.692917 755.144470,116.633232 765.336060,91.386192 
	C766.142151,89.389206 767.229858,87.489532 768.334412,85.632484 
	C771.708984,79.958618 771.729004,80.007919 777.537354,83.527908 
	C779.536011,84.739143 783.272400,85.528229 783.433899,86.849899 
	C783.854980,90.297119 783.412842,94.201927 782.117554,97.446190 
	C776.263000,112.109871 769.734558,126.505402 763.925354,141.186081 
	C750.032959,176.294052 737.494690,211.888489 728.709839,248.649948 
	C724.513794,266.208496 721.543884,284.060242 718.045349,301.784485 
	C717.899536,302.523041 718.026672,303.315491 718.780701,304.321442 
	C723.494141,295.024231 728.141357,285.692719 732.932434,276.435699 
	C752.744324,238.156998 773.477905,200.391586 797.246765,164.398438 
	C810.831055,143.827774 825.188904,123.753532 843.716064,107.217094 
	C848.981201,102.517715 855.137512,98.693817 861.263733,95.116959 
	C867.331055,91.574478 873.889648,91.336472 880.777405,95.303940 
	C892.046875,101.117622 895.330933,110.504944 894.975769,121.730797 
	C894.834656,126.188858 894.634155,130.670914 894.035583,135.084366 
	C890.497742,161.169891 882.482483,185.705887 868.555359,208.196289 
	C865.798828,212.647751 863.477295,217.368576 860.955200,221.965179 
	C860.955200,221.965195 861.000000,221.990082 860.637085,222.011597 
	C857.872437,224.372818 855.470703,226.712540 853.030151,229.019165 
	C852.991333,228.986053 852.915161,228.918121 852.943970,228.560379 
	C853.227600,227.428467 853.284485,226.492249 853.766174,225.903854 
	C864.996155,212.188568 873.963257,197.170029 880.219849,180.549911 
	C887.792419,160.434036 893.601624,139.973083 893.007751,118.182098 
	C892.805237,110.747185 890.452637,105.255005 885.610107,102.588593 
	C891.946411,117.566902 888.607056,132.159012 885.506226,146.455322 
	C881.451355,165.150299 874.887024,183.079681 865.560669,199.904739 
	C854.466248,219.919556 840.184631,237.139267 821.002380,249.844009 
	C816.076538,253.106506 810.278015,255.051453 804.880432,257.601685 
	C804.983582,258.024811 805.086792,258.447937 805.189941,258.871033 
	C810.504395,257.615295 815.818848,256.359528 821.043945,255.450928 
	C813.373962,260.707123 805.448242,261.803802 797.007874,258.120392 
	C796.159485,257.750153 795.010376,258.069000 794.000793,258.068054 
M740.484192,181.056549 
	C733.021484,207.138885 724.953918,233.068481 718.315613,259.358978 
	C714.120178,275.974670 712.002808,293.119568 709.099670,310.052185 
	C708.666931,312.575897 709.039429,315.237701 709.039429,317.835602 
	C709.824402,317.952667 710.609375,318.069733 711.394348,318.186798 
	C712.259766,315.867401 713.545288,313.611786 713.909119,311.216187 
	C714.876343,304.846649 714.912048,298.300995 716.270508,292.031708 
	C721.104004,269.724823 725.145874,247.146225 731.708130,225.338776 
	C740.353149,196.610107 750.791138,168.401703 761.062134,140.189499 
	C766.449402,125.391945 773.182678,111.087082 779.163391,96.500404 
	C780.178833,94.023697 780.462341,91.246849 781.083984,88.608673 
	C780.542175,88.422798 780.000366,88.236923 779.458496,88.051041 
	C778.233093,89.533348 776.598145,90.834435 775.848877,92.527443 
	C771.081177,103.299644 766.244507,114.054253 761.931702,125.011909 
	C754.701843,143.381256 747.846680,161.898148 740.484192,181.056549 
z"/>
<path fill="#030303" opacity="1.000000" stroke="none" 
	d="
M177.981323,271.866455 
	C181.594818,271.866455 184.711929,271.866455 188.026352,271.866455 
	C188.026352,282.998169 188.026352,293.604797 188.026352,304.586975 
	C156.991791,304.586975 125.947952,304.586975 94.579803,304.586975 
	C94.579803,250.604416 94.579803,196.413330 94.579803,141.849380 
	C106.951813,141.849380 119.335602,141.849380 131.985596,141.849380 
	C131.985596,185.120895 131.985596,228.208832 131.985596,271.866455 
	C147.323227,271.866455 162.404083,271.866455 177.981323,271.866455 
z"/>
<path fill="#FACEE6" opacity="1.000000" stroke="none" 
	d="
M704.996826,340.447632 
	C705.978149,340.100494 707.015625,340.105011 708.461548,340.107727 
	C708.869873,340.105927 708.898193,340.122650 708.985474,340.490112 
	C713.788818,343.012878 717.837341,341.439514 721.069946,335.761871 
	C725.346069,328.251282 729.510254,320.670685 733.497620,313.003143 
	C744.244751,292.336731 754.893616,271.619049 765.535828,250.898254 
	C769.094788,243.968979 772.515869,236.968918 776.039673,229.790039 
	C776.079407,229.578857 776.104980,229.149872 776.438843,229.062714 
	C778.198914,226.805832 779.748535,224.706253 781.028442,222.453415 
	C785.073242,215.333481 789.017090,208.156250 793.040588,200.790680 
	C793.081238,200.580185 793.106812,200.152206 793.439331,200.064941 
	C797.180359,194.318481 800.588928,188.659271 804.035828,182.787903 
	C804.074097,182.575745 804.101685,182.145462 804.432556,182.062515 
	C805.631226,181.007370 806.602539,180.108459 807.350708,179.051605 
	C814.985596,168.267624 822.567810,157.446365 830.202271,146.662079 
	C832.745972,143.068924 835.397705,139.552261 838.000000,136.000305 
	C838.000000,136.000000 838.000000,135.999649 838.308960,135.872620 
	C840.747314,133.165543 842.876831,130.585480 845.003174,128.002716 
	C845.000000,128.000000 845.005371,128.005112 845.313171,127.878525 
	C848.078979,125.167213 850.536987,122.582481 853.216919,119.894913 
	C853.716187,119.597008 853.906128,119.337837 854.008667,119.014572 
	C859.676147,115.222931 865.281555,111.333267 871.042236,107.688980 
	C873.275513,106.276146 875.992920,104.113556 877.872314,108.709969 
	C872.317993,111.817978 866.119446,113.725182 861.333008,117.448006 
	C847.062073,128.547653 836.204651,142.913254 825.751343,157.488861 
	C798.671143,195.248367 775.814880,235.515945 754.921021,276.965424 
	C744.744263,297.153992 733.988403,317.051208 723.434082,337.048309 
	C721.252380,341.181854 718.062561,344.238068 713.186646,344.946228 
	C709.530273,345.477234 706.599426,344.465363 704.996826,340.447632 
z"/>
<path fill="#FBD6EA" opacity="1.000000" stroke="none" 
	d="
M1182.995239,155.942078 
	C1184.363892,155.928146 1185.732422,155.914200 1187.921387,155.926514 
	C1190.492798,155.618988 1192.244019,155.285217 1193.995239,154.951431 
	C1195.687744,154.932053 1197.380371,154.912674 1199.888916,154.920639 
	C1202.135010,154.615829 1203.565186,154.283676 1204.995239,153.951508 
	C1206.043091,153.938141 1207.090820,153.924789 1208.904419,153.932159 
	C1210.778564,153.615814 1211.886841,153.278702 1212.995239,152.941589 
	C1213.424438,152.933426 1213.853638,152.925262 1214.969238,152.902451 
	C1218.143677,151.377640 1221.336670,150.036407 1217.087769,146.911667 
	C1215.144531,145.493729 1213.201416,144.075775 1211.099121,142.354828 
	C1217.464478,142.102676 1220.680908,143.917145 1220.990967,147.721802 
	C1221.366455,152.331161 1218.568237,155.413162 1213.039917,155.922791 
	C1197.403687,157.364212 1181.748169,158.595139 1166.110718,160.023865 
	C1152.455200,161.271515 1138.812500,162.658096 1125.167725,164.019409 
	C1120.494019,164.485672 1118.364136,167.919434 1116.974854,171.750458 
	C1111.271362,187.477325 1105.252075,203.111908 1100.230713,219.058121 
	C1094.264038,238.006729 1088.780884,257.134277 1083.932983,276.396881 
	C1081.612671,285.616089 1081.139526,295.313782 1080.033813,304.818542 
	C1079.581543,308.705933 1079.668701,312.656036 1079.811523,316.875977 
	C1077.726318,319.913818 1077.129883,317.928040 1077.001953,315.847321 
	C1076.819702,312.883301 1076.960571,309.899445 1077.230835,306.246429 
	C1077.371704,304.041534 1077.245361,302.514252 1077.135376,300.625061 
	C1077.416870,298.844757 1077.682007,297.426331 1078.223633,295.799622 
	C1078.604492,294.692261 1078.708984,293.793243 1078.847412,292.488251 
	C1078.903931,290.724152 1078.926636,289.366028 1079.225952,287.800171 
	C1079.611938,286.695618 1079.721313,285.798798 1079.863037,284.541382 
	C1079.909180,283.457184 1079.922729,282.733612 1080.215332,281.803772 
	C1080.608398,280.699829 1080.722412,279.802155 1080.861084,278.587463 
	C1080.890869,277.846649 1080.895996,277.422821 1081.187012,276.800171 
	C1081.596436,275.703491 1081.719971,274.805603 1081.871216,273.590332 
	C1081.911743,272.848389 1081.924561,272.423859 1082.215332,271.795532 
	C1082.618408,270.701996 1082.743774,269.812256 1082.904907,268.603455 
	C1082.948975,267.855835 1082.957153,267.427307 1083.245972,266.779907 
	C1083.974976,264.681030 1084.423340,262.801025 1084.876831,260.615082 
	C1084.971191,258.919556 1085.060425,257.529999 1085.456055,256.054810 
	C1086.124878,255.285507 1086.487549,254.601822 1086.858887,253.612671 
	C1086.961060,251.917892 1087.054443,250.528625 1087.454346,249.054504 
	C1088.126343,248.286819 1088.491821,247.604004 1088.861572,246.591919 
	C1089.239502,243.839142 1089.613159,241.415588 1090.010254,239.020111 
	C1090.033691,239.048172 1090.103882,239.068192 1090.452148,238.989014 
	C1091.852905,235.255890 1092.905518,231.601944 1093.968506,227.582550 
	C1094.024536,226.487411 1094.070190,225.757690 1094.410034,224.999054 
	C1095.189697,223.357513 1095.675049,221.744934 1096.505371,220.033264 
	C1099.243652,212.627884 1101.636963,205.321594 1104.053467,197.645401 
	C1104.760620,195.224564 1105.444702,193.173630 1106.471069,191.019714 
	C1107.555298,188.617661 1108.297119,186.318558 1109.184204,183.687958 
	C1110.266113,180.613113 1111.202637,177.869751 1112.455078,175.040344 
	C1113.107300,174.236755 1113.443726,173.519211 1113.822998,172.425568 
	C1113.953979,171.043716 1114.042114,170.037979 1114.426880,168.876862 
	C1115.208374,167.519547 1115.693359,166.317627 1116.497925,165.055725 
	C1118.197021,163.958725 1119.576416,162.921677 1120.955811,161.884628 
	C1121.696777,161.895248 1122.437622,161.905884 1123.896118,161.929474 
	C1125.407471,161.607819 1126.201416,161.273209 1126.995239,160.938599 
	C1128.363159,160.923996 1129.731201,160.909409 1131.919678,160.921875 
	C1134.490723,160.609818 1136.241211,160.270691 1137.991821,159.931580 
	C1139.416626,159.673920 1140.841309,159.416260 1142.889038,159.385803 
	C1145.339722,159.389481 1147.167480,159.165939 1148.995239,158.942413 
	C1150.739746,158.657257 1152.484375,158.372086 1154.852783,158.338287 
	C1156.982788,158.376755 1158.489014,158.163834 1159.995239,157.950928 
	C1161.687866,157.932053 1163.380493,157.913177 1165.889160,157.921356 
	C1168.135254,157.616959 1169.565186,157.285507 1170.995239,156.954056 
	C1172.742676,156.691269 1174.490112,156.428482 1176.874756,156.389359 
	C1179.339722,156.389359 1181.167480,156.165710 1182.995239,155.942078 
z"/>
<path fill="#F9C7E2" opacity="1.000000" stroke="none" 
	d="
M1284.130615,233.153336 
	C1285.741211,231.090820 1287.797607,229.196915 1288.681274,226.859528 
	C1288.935181,226.187698 1285.784546,224.258728 1284.234863,222.861862 
	C1283.517456,222.215256 1282.895874,221.462463 1282.066162,220.449890 
	C1286.145996,219.331741 1289.743530,220.586044 1291.513428,224.522995 
	C1293.134644,228.129074 1290.997803,231.004501 1288.664062,233.920471 
	C1271.781860,255.015381 1255.102051,276.272186 1238.279663,297.415131 
	C1230.281982,307.466827 1228.417847,319.602356 1225.880859,331.642639 
	C1222.766235,346.424225 1219.357910,361.211853 1211.672607,374.477631 
	C1208.833618,379.377991 1205.564453,384.019653 1198.784546,384.062347 
	C1195.246582,384.084625 1192.609375,383.170013 1190.949707,379.555969 
	C1191.355469,379.181610 1191.894653,378.995758 1192.340698,379.126770 
	C1202.317505,382.057556 1206.078491,381.162689 1210.163818,371.135803 
	C1215.266113,358.613312 1219.886841,345.663116 1222.604004,332.462921 
	C1225.546021,318.171387 1228.691895,304.375305 1238.022583,292.146484 
	C1238.084961,291.582733 1238.118042,291.153564 1238.454346,291.084839 
	C1240.534912,288.683990 1242.279175,286.351837 1244.011719,284.009827 
	C1244.000000,284.000000 1244.020142,284.018555 1244.328125,283.881866 
	C1248.448120,278.964264 1252.334595,274.240479 1256.052856,269.387726 
	C1260.447266,263.652405 1264.696289,257.805695 1269.004150,252.003662 
	C1269.000000,252.000000 1269.007324,252.006439 1269.315430,251.874664 
	C1273.086182,247.498535 1276.548828,243.254166 1280.005615,239.004898 
	C1280.000000,239.000000 1280.009766,239.009201 1280.316284,238.878815 
	C1281.753784,237.168716 1282.884644,235.589020 1284.047974,233.795837 
	C1284.080444,233.582336 1284.130615,233.153336 1284.130615,233.153336 
z"/>
<path fill="#F9C9E3" opacity="1.000000" stroke="none" 
	d="
M861.276489,221.847717 
	C863.477295,217.368576 865.798828,212.647751 868.555359,208.196289 
	C882.482483,185.705887 890.497742,161.169891 894.035583,135.084366 
	C894.634155,130.670914 894.834656,126.188858 894.975769,121.730797 
	C895.330933,110.504944 892.046875,101.117622 881.142151,95.398094 
	C883.697937,95.949860 886.892273,96.153053 889.023560,97.763336 
	C896.196289,103.182686 897.458252,111.558968 897.822815,119.650978 
	C898.601929,136.942291 894.328186,153.561218 888.920044,169.772263 
	C885.515625,179.976959 881.396851,190.058105 876.445618,199.596222 
	C872.378113,207.432007 866.611328,214.385620 861.276489,221.847717 
z"/>
<path fill="#FACCE5" opacity="1.000000" stroke="none" 
	d="
M1069.973267,331.519836 
	C1071.167480,331.484619 1072.589355,331.515472 1073.695435,332.122040 
	C1081.140503,336.204956 1086.633301,332.754364 1091.874023,327.320862 
	C1092.000244,327.002106 1092.009521,327.011322 1092.332275,326.978577 
	C1093.106689,326.299957 1093.558228,325.654053 1094.004883,325.004089 
	C1094.000000,325.000000 1094.008789,325.007996 1094.318115,324.880280 
	C1096.697754,322.611816 1098.995850,320.646484 1100.800415,318.301331 
	C1111.074829,304.949249 1121.329712,291.579742 1131.386597,278.063843 
	C1136.485596,271.210999 1141.154663,264.038177 1146.051880,256.797913 
	C1146.085693,256.585785 1146.126587,256.158112 1146.126587,256.158112 
	C1147.174316,255.869781 1148.222046,255.581451 1149.352661,255.270279 
	C1149.862671,256.368164 1150.324219,257.361755 1150.890991,258.679443 
	C1149.789551,259.770233 1148.234863,260.274261 1147.428101,261.342804 
	C1134.252197,278.792297 1121.365845,296.464325 1107.971924,313.743286 
	C1102.635010,320.628235 1096.697144,327.218231 1090.172119,332.965149 
	C1083.094360,339.198853 1075.061523,338.230286 1069.973267,331.519836 
z"/>
<path fill="#FBD8EB" opacity="1.000000" stroke="none" 
	d="
M1006.954468,235.049744 
	C1003.783813,240.664139 1000.329346,246.050293 996.874817,251.436462 
	C996.495300,251.268555 996.115723,251.100632 995.736206,250.932724 
	C998.022705,245.254669 1000.273438,239.561844 1002.605164,233.902405 
	C1005.314636,227.325958 1008.195312,220.818359 1010.809448,214.204880 
	C1012.538391,209.830994 1013.337830,205.618057 1006.731873,204.571930 
	C1006.153259,204.480316 1005.741272,203.336731 1005.109497,202.353821 
	C1014.360962,201.970551 1016.551636,204.563477 1013.936646,213.697510 
	C1012.453552,218.877686 1009.978149,223.767563 1008.104980,228.845444 
	C1007.400879,230.754135 1007.135803,232.824722 1006.954468,235.049744 
z"/>
<path fill="#FACCE5" opacity="1.000000" stroke="none" 
	d="
M802.991699,246.657928 
	C800.163391,246.782196 799.655640,246.687027 800.169067,243.947983 
	C801.068726,239.148422 802.660034,234.478516 804.029968,229.174515 
	C804.098328,228.594742 804.126099,228.173462 804.457764,228.102081 
	C806.253235,226.397781 807.717041,224.764877 809.390625,223.118896 
	C809.600464,223.105850 810.013550,223.027084 810.013550,223.027100 
	C812.908081,221.261673 816.055725,219.798965 818.627991,217.648117 
	C821.352844,215.369720 820.390442,212.312790 817.060852,210.909943 
	C815.964172,210.447876 815.067871,209.510223 813.996460,208.436569 
	C817.558472,207.658966 821.244324,207.793076 822.656677,211.834763 
	C824.092834,215.944473 822.277161,218.907486 818.546509,221.340622 
	C811.485962,225.945465 804.297180,230.684998 803.384827,240.293900 
	C803.198120,242.260651 803.123291,244.238037 802.991699,246.657928 
z"/>
<path fill="#F9C9E3" opacity="1.000000" stroke="none" 
	d="
M794.153503,258.375641 
	C795.010376,258.069000 796.159485,257.750153 797.007874,258.120392 
	C805.448242,261.803802 813.373962,260.707123 821.262451,255.433990 
	C821.570312,255.069916 822.007385,255.013870 822.366699,254.990631 
	C827.870361,251.017441 833.014587,247.067490 838.371460,243.100845 
	C838.584106,243.084152 839.002441,243.001129 839.353638,243.015427 
	C840.170898,243.076492 840.636963,243.123260 841.103088,243.170029 
	C838.402954,245.954193 836.063110,249.259888 832.933472,251.422470 
	C824.333374,257.365204 815.690002,263.905426 804.424866,262.859100 
	C800.952637,262.536591 797.673645,260.133606 794.153503,258.375641 
z"/>
<path fill="#EF87BF" opacity="1.000000" stroke="none" 
	d="
M841.380249,242.971252 
	C840.636963,243.123260 840.170898,243.076492 839.379517,242.669678 
	C843.674622,237.845810 848.294922,233.381973 852.915161,228.918121 
	C852.915161,228.918121 852.991333,228.986053 853.019043,229.361755 
	C853.085083,230.194214 853.123413,230.651001 853.161682,231.107788 
	C849.326965,234.996033 845.492188,238.884262 841.380249,242.971252 
z"/>
<path fill="#F9C9E3" opacity="1.000000" stroke="none" 
	d="
M853.494385,231.055756 
	C853.123413,230.651001 853.085083,230.194214 853.057861,229.394852 
	C855.470703,226.712540 857.872437,224.372818 860.614624,221.994949 
	C858.578979,224.972443 856.203064,227.988098 853.494385,231.055756 
z"/>
<path fill="#F068B2" opacity="1.000000" stroke="none" 
	d="
M1284.116333,232.782379 
	C1284.130615,233.153336 1284.080444,233.582336 1283.690918,233.823181 
	C1282.204102,235.712418 1281.106934,237.360794 1280.009766,239.009186 
	C1280.009766,239.009201 1280.000000,239.000000 1279.657471,239.028076 
	C1275.879150,243.372910 1272.443237,247.689697 1269.007324,252.006454 
	C1269.007324,252.006439 1269.000000,252.000000 1268.655762,252.028397 
	C1267.150391,252.955841 1265.744995,253.663925 1264.868164,254.785278 
	C1259.670532,261.432709 1254.503174,268.108551 1249.523071,274.919281 
	C1247.438843,277.769653 1245.839844,280.974762 1244.020264,284.018585 
	C1244.020142,284.018555 1244.000000,284.000000 1243.661621,284.032471 
	C1241.588135,286.427826 1239.853149,288.790710 1238.118042,291.153564 
	C1238.118042,291.153564 1238.084961,291.582733 1238.047363,291.794647 
	C1234.707520,296.361725 1230.056030,300.254944 1228.374878,305.165161 
	C1224.485962,316.525177 1222.436035,328.501373 1218.886230,339.994781 
	C1215.484741,351.008118 1211.418823,361.845612 1207.034912,372.509613 
	C1205.574219,376.062836 1202.866455,379.877228 1196.682373,378.497803 
	C1198.649292,376.124268 1200.811157,374.419159 1201.774170,372.195007 
	C1205.709961,363.105011 1210.001221,354.069489 1212.792847,344.610016 
	C1215.965210,333.860626 1217.325073,322.589935 1220.114014,311.710266 
	C1223.384521,298.952576 1232.296021,289.420990 1240.172729,279.428223 
	C1253.596069,262.398956 1267.256958,245.556015 1280.955444,228.746735 
	C1282.126953,227.309280 1284.325684,226.709106 1286.047241,225.719940 
	C1286.404175,226.174683 1286.761108,226.629425 1287.118164,227.084167 
	C1286.112793,228.859909 1285.107422,230.635666 1284.116333,232.782379 
z"/>
<path fill="#F069B3" opacity="1.000000" stroke="none" 
	d="
M1146.113647,255.775421 
	C1146.126587,256.158112 1146.085693,256.585785 1145.701538,256.823914 
	C1142.583252,260.299713 1139.721313,263.438873 1137.136353,266.791504 
	C1123.227417,284.830780 1109.370605,302.910217 1095.566040,321.029266 
	C1094.736084,322.118652 1094.513794,323.671021 1094.008789,325.007996 
	C1094.008789,325.007996 1094.000000,325.000000 1093.678955,325.034058 
	C1092.908569,325.715881 1092.459106,326.363617 1092.009521,327.011353 
	C1092.009521,327.011322 1092.000244,327.002106 1092.005859,327.005920 
	C1089.943237,327.927277 1087.900024,328.907166 1085.800293,329.745422 
	C1083.528320,330.652405 1081.203613,331.427185 1078.811401,331.838745 
	C1101.808594,312.021942 1116.366577,285.703918 1134.697754,262.469025 
	C1139.284424,256.655243 1143.503296,250.551239 1148.104858,244.289963 
	C1150.466919,248.912338 1148.124634,252.121384 1146.113647,255.775421 
z"/>
<path fill="#F069B3" opacity="1.000000" stroke="none" 
	d="
M1000.322571,267.328217 
	C1006.550232,257.315460 1012.413452,247.506042 1018.730530,237.998215 
	C1022.253723,232.695496 1024.066162,232.368286 1027.889648,234.769180 
	C1024.243774,239.022430 1020.064087,242.887421 1017.131775,247.538773 
	C1011.754272,256.068726 1006.923462,264.962738 1002.212830,273.888702 
	C996.550476,284.618073 991.401794,295.619812 985.672363,306.311584 
	C984.478943,308.538727 981.718262,309.925995 979.679810,311.700317 
	C979.194580,311.238129 978.709290,310.775970 978.224060,310.313812 
	C985.531982,296.095062 992.839905,281.876343 1000.322571,267.328217 
z"/>
<path fill="#F069B3" opacity="1.000000" stroke="none" 
	d="
M1236.019043,194.482666 
	C1239.395996,194.121262 1240.309814,194.825317 1239.931152,198.207718 
	C1238.553101,210.520004 1236.958618,222.807938 1235.467285,235.107681 
	C1234.293945,244.785156 1233.150635,254.466309 1231.997437,264.146210 
	C1231.606201,267.430359 1231.485107,270.779572 1230.701782,273.966675 
	C1230.418457,275.120331 1228.560913,275.887299 1227.421631,276.830688 
	C1227.104614,275.570923 1226.394531,274.266724 1226.531128,273.058228 
	C1227.941162,260.585602 1229.491211,248.128845 1230.995483,235.666855 
	C1232.637573,222.062790 1234.272583,208.457855 1236.019043,194.482666 
z"/>
<path fill="#F068B2" opacity="1.000000" stroke="none" 
	d="
M1075.844727,305.987305 
	C1075.231445,308.483612 1074.393066,310.951996 1074.078979,313.485382 
	C1073.843994,315.381470 1074.284546,317.361359 1074.424927,319.312042 
	C1070.782593,317.824524 1069.362915,315.444977 1070.084961,309.338135 
	C1071.632324,296.250916 1073.159546,283.129333 1075.580933,270.187561 
	C1077.519165,259.827423 1080.765259,249.711975 1084.058594,239.208435 
	C1086.392700,238.266068 1088.099487,237.603195 1089.869385,237.292969 
	C1089.989746,238.119812 1090.046875,238.593994 1090.103882,239.068192 
	C1090.103882,239.068192 1090.033691,239.048172 1089.652588,239.077591 
	C1087.171143,246.404678 1085.070679,253.702332 1082.967285,261.322937 
	C1082.944824,262.076111 1082.925415,262.506348 1082.623657,262.985962 
	C1082.223022,263.689850 1082.104614,264.344360 1081.974365,265.331726 
	C1081.926636,266.107239 1081.890991,266.549896 1081.579346,267.025543 
	C1081.193970,267.703735 1081.084595,268.348907 1080.973511,269.320679 
	C1080.952026,270.081573 1080.932251,270.515961 1080.595947,271.008301 
	C1080.174683,272.044159 1080.069580,273.022095 1079.966797,274.324371 
	C1079.944092,275.079865 1079.919312,275.510956 1079.579346,276.002869 
	C1079.163696,277.042450 1079.063232,278.021210 1078.966187,279.373871 
	C1078.923096,280.493378 1078.876709,281.239014 1078.519165,282.037628 
	C1078.125732,283.060394 1078.043579,284.030212 1077.965332,285.374084 
	C1077.928711,286.494690 1077.888184,287.241211 1077.505859,288.061981 
	C1077.086304,289.758026 1077.008423,291.379791 1076.942871,293.375244 
	C1076.918213,294.495026 1076.881348,295.241119 1076.501953,296.062744 
	C1076.094849,297.755829 1076.030518,299.373444 1075.969482,301.407806 
	C1075.930054,303.212158 1075.887329,304.599731 1075.844727,305.987305 
z"/>
<path fill="#F067B2" opacity="1.000000" stroke="none" 
	d="
M1114.130371,169.032242 
	C1114.042114,170.037979 1113.953979,171.043716 1113.548950,172.487305 
	C1112.802002,173.268982 1112.371948,173.612823 1111.594482,174.027863 
	C1109.829712,178.064423 1108.412476,182.029816 1106.986450,186.235443 
	C1106.977661,186.475647 1106.941650,186.955002 1106.589233,187.030579 
	C1104.821411,191.401459 1103.406006,195.696762 1101.979248,200.234283 
	C1101.967773,200.476501 1101.947876,200.961090 1101.595215,201.037170 
	C1100.159424,204.740036 1099.076172,208.366821 1097.977417,212.365829 
	C1097.289551,214.812515 1096.617188,216.886993 1095.609375,219.030731 
	C1094.507812,220.401398 1093.741577,221.702789 1092.632812,222.972916 
	C1091.198364,222.631454 1090.106445,222.321259 1089.014648,222.011047 
	C1095.244263,204.219208 1101.263062,186.349487 1107.791992,168.668137 
	C1111.096191,159.720184 1114.635742,157.737854 1122.837891,158.196701 
	C1122.235962,159.167648 1121.606201,160.183731 1120.966064,161.542236 
	C1119.576416,162.921677 1118.197021,163.958725 1116.150391,165.048523 
	C1115.032349,166.411621 1114.581299,167.721939 1114.130371,169.032242 
z"/>
<path fill="#F068B2" opacity="1.000000" stroke="none" 
	d="
M938.101440,235.276550 
	C943.887817,217.798370 950.346985,201.073929 959.796936,185.753372 
	C960.629395,186.035751 961.461792,186.318115 962.294250,186.600494 
	C961.607483,189.231903 961.362183,192.086700 960.162170,194.458405 
	C952.437622,209.724854 945.374512,225.246155 941.200684,241.909882 
	C940.163086,246.052292 939.812012,250.362534 938.939087,254.552628 
	C938.643738,255.970413 937.711975,257.255646 937.071167,258.601501 
	C936.379089,257.308075 934.972351,255.929672 935.114319,254.735413 
	C935.872498,248.358398 937.017761,242.027420 938.101440,235.276550 
z"/>
<path fill="#EF67B1" opacity="1.000000" stroke="none" 
	d="
M1001.672485,218.672424 
	C1003.532410,214.869858 1005.216492,211.402832 1006.900574,207.935806 
	C1007.682983,208.186478 1008.465393,208.437164 1009.247803,208.687836 
	C1008.442261,211.915421 1007.965637,215.270187 1006.775391,218.349060 
	C1000.980713,233.338684 994.952576,248.237854 989.101868,263.206116 
	C987.237488,267.975922 985.702698,272.873688 983.934143,277.682404 
	C983.456543,278.980927 982.675720,280.167877 981.225342,281.077972 
	C984.381775,259.186462 992.197144,238.859177 1001.672485,218.672424 
z"/>
<path fill="#F06AB3" opacity="1.000000" stroke="none" 
	d="
M1193.724121,242.758209 
	C1204.188965,232.919006 1211.757568,220.740067 1222.115479,211.291550 
	C1222.911865,211.959137 1223.708130,212.626724 1224.504517,213.294312 
	C1221.884888,216.809204 1219.441406,220.473114 1216.614868,223.812851 
	C1205.255371,237.234863 1193.079102,249.807281 1178.576294,259.945923 
	C1174.689575,262.662964 1170.708374,264.491974 1166.412109,263.830536 
	C1175.317139,256.978546 1184.395264,249.993362 1193.724121,242.758209 
z"/>
<path fill="#FDEAF4" opacity="1.000000" stroke="none" 
	d="
M899.814331,244.811844 
	C897.262512,247.864227 894.958008,250.664032 892.653442,253.463837 
	C892.098511,252.973923 891.543579,252.484009 890.988647,251.994110 
	C893.607422,243.076340 898.053955,235.075500 904.442139,228.273788 
	C907.693909,224.811523 911.548462,221.878845 915.348999,218.994659 
	C916.276062,218.291077 918.062805,218.720413 919.454285,218.628845 
	C919.153870,220.107941 919.325562,221.977463 918.477173,223.003433 
	C912.455627,230.285431 906.225342,237.394852 899.814331,244.811844 
z"/>
<path fill="#F069B3" opacity="1.000000" stroke="none" 
	d="
M925.026855,237.962006 
	C914.507385,248.753357 904.281860,259.360901 893.682434,269.580688 
	C891.543518,271.643005 887.988342,272.236511 884.726807,272.729797 
	C901.004395,260.188965 913.301636,243.868530 927.501648,229.549026 
	C928.114197,230.044647 928.726746,230.540253 929.339233,231.035858 
	C927.955872,233.237732 926.572449,235.439621 925.026855,237.962006 
z"/>
<path fill="#F06AB3" opacity="1.000000" stroke="none" 
	d="
M903.253662,220.222137 
	C906.525940,216.950699 909.479797,213.799042 914.935852,214.312958 
	C914.273438,215.489304 914.026367,216.517059 913.375488,216.996918 
	C900.352356,226.597656 891.858337,239.254578 887.559814,254.809921 
	C886.907104,257.171936 886.287354,259.876740 882.209229,258.394318 
	C885.051086,243.436081 891.817749,230.774475 903.253662,220.222137 
z"/>
<path fill="#EF67B1" opacity="1.000000" stroke="none" 
	d="
M1131.901489,116.865608 
	C1133.422974,113.498581 1134.679443,110.394737 1136.373657,107.551605 
	C1136.963989,106.560860 1138.635132,106.214043 1139.812622,105.573166 
	C1139.958496,106.910400 1140.629517,108.474319 1140.165771,109.548401 
	C1136.956177,116.983360 1133.531738,124.326309 1130.131958,131.678299 
	C1128.116455,136.036453 1126.155518,140.430191 1123.879639,144.651337 
	C1123.171509,145.964722 1121.511963,146.765137 1120.287964,147.800415 
	C1120.145874,146.204926 1119.396851,144.344009 1119.959717,143.056839 
	C1123.754028,134.380371 1127.826294,125.825493 1131.901489,116.865608 
z"/>
<path fill="#F06AB3" opacity="1.000000" stroke="none" 
	d="
M956.946228,260.001648 
	C964.784546,253.833771 972.295227,247.819595 980.260315,241.441635 
	C979.423523,251.250702 950.797852,270.696503 939.879700,269.616821 
	C945.502869,266.438446 951.060730,263.296906 956.946228,260.001648 
z"/>
<path fill="#EF67B1" opacity="1.000000" stroke="none" 
	d="
M1162.947998,224.940262 
	C1165.628540,218.634537 1168.177490,212.266479 1171.108887,206.079590 
	C1171.646973,204.943893 1173.737793,204.543915 1175.112061,203.804367 
	C1174.912720,205.248260 1174.941406,206.770844 1174.475220,208.122665 
	C1172.242554,214.594818 1169.876099,221.020752 1167.003418,227.510986 
	C1165.282349,226.685989 1164.115234,225.813110 1162.947998,224.940262 
z"/>
<path fill="#F06AB3" opacity="1.000000" stroke="none" 
	d="
M1197.654297,345.706787 
	C1199.030762,343.028381 1200.230591,340.685150 1201.430420,338.341919 
	C1201.824951,338.381622 1202.219482,338.421326 1202.614014,338.460999 
	C1202.614014,339.877960 1202.972900,341.412415 1202.553833,342.692139 
	C1200.388184,349.305145 1198.113281,355.887207 1195.633301,362.387268 
	C1195.251221,363.388885 1193.606812,363.908997 1192.546265,364.651764 
	C1192.225098,363.370544 1191.318848,361.885254 1191.682373,360.842834 
	C1193.425659,355.843506 1195.512573,350.964020 1197.654297,345.706787 
z"/>
<path fill="#ED53A7" opacity="1.000000" stroke="none" 
	d="
M1088.864258,222.346436 
	C1090.106445,222.321259 1091.198364,222.631454 1092.662354,223.284531 
	C1093.394897,224.094269 1093.755371,224.561127 1094.115845,225.027985 
	C1094.070190,225.757690 1094.024536,226.487411 1093.617676,227.633636 
	C1092.106323,231.013535 1090.956299,233.976929 1089.806152,236.940323 
	C1088.099487,237.603195 1086.392700,238.266068 1084.335693,238.964157 
	C1085.561646,233.560196 1087.137817,228.121017 1088.864258,222.346436 
z"/>
<path fill="#ED4AA3" opacity="1.000000" stroke="none" 
	d="
M1162.682861,225.194946 
	C1164.115234,225.813110 1165.282349,226.685989 1166.716309,227.777618 
	C1166.411987,230.428375 1165.840942,232.860382 1164.777588,235.694214 
	C1162.523560,237.730484 1160.761841,239.364944 1159.000000,240.999390 
	C1160.139282,235.816147 1161.278564,230.632889 1162.682861,225.194946 
z"/>
<path fill="#F06AB3" opacity="1.000000" stroke="none" 
	d="
M1063.178589,244.245483 
	C1065.833618,242.481720 1068.197632,240.941498 1070.572021,239.417709 
	C1070.682251,239.346939 1070.886963,239.423615 1071.047729,239.431656 
	C1072.492554,244.838470 1062.502686,250.520294 1052.253540,249.647171 
	C1056.165161,247.743958 1059.527344,246.108063 1063.178589,244.245483 
z"/>
<path fill="#EF67B1" opacity="1.000000" stroke="none" 
	d="
M1158.990479,241.457306 
	C1160.761841,239.364944 1162.523560,237.730484 1164.623535,236.032410 
	C1164.018921,241.526001 1163.076294,247.083206 1162.131226,252.655273 
	C1158.985352,251.418030 1158.985352,251.418030 1158.990479,241.457306 
z"/>
<path fill="#F6A6D2" opacity="1.000000" stroke="none" 
	d="
M1217.054932,147.282104 
	C1221.336670,150.036407 1218.143677,151.377640 1215.290283,152.879181 
	C1215.624023,151.131226 1216.323120,149.391876 1217.054932,147.282104 
z"/>
<path fill="#F6A6D2" opacity="1.000000" stroke="none" 
	d="
M1137.735596,159.667053 
	C1136.241211,160.270691 1134.490723,160.609818 1132.329102,160.893585 
	C1133.771851,160.359650 1135.625610,159.881088 1137.735596,159.667053 
z"/>
<path fill="#F6A6D2" opacity="1.000000" stroke="none" 
	d="
M1148.742432,158.676392 
	C1147.167480,159.165939 1145.339722,159.389481 1143.252197,159.358307 
	C1144.824829,158.872513 1146.657349,158.641449 1148.742432,158.676392 
z"/>
<path fill="#F6A6D2" opacity="1.000000" stroke="none" 
	d="
M1193.740967,154.683319 
	C1192.244019,155.285217 1190.492798,155.618988 1188.330933,155.898499 
	C1189.775757,155.367905 1191.631226,154.891571 1193.740967,154.683319 
z"/>
<path fill="#F6A6D2" opacity="1.000000" stroke="none" 
	d="
M1182.742310,155.676270 
	C1181.167480,156.165710 1179.339722,156.389359 1177.252197,156.358337 
	C1178.824707,155.872589 1180.657104,155.641525 1182.742310,155.676270 
z"/>
<path fill="#F6A6D2" opacity="1.000000" stroke="none" 
	d="
M1204.756470,153.688965 
	C1203.565186,154.283676 1202.135010,154.615829 1200.310669,154.891846 
	C1201.450195,154.365967 1202.983887,153.896210 1204.756470,153.688965 
z"/>
<path fill="#F6A6D2" opacity="1.000000" stroke="none" 
	d="
M1170.756836,156.691162 
	C1169.565186,157.285507 1168.135254,157.616959 1166.311035,157.892700 
	C1167.450562,157.367432 1168.984497,156.897858 1170.756836,156.691162 
z"/>
<path fill="#F6A6D2" opacity="1.000000" stroke="none" 
	d="
M1159.759277,157.688782 
	C1158.489014,158.163834 1156.982788,158.376755 1155.234985,158.336639 
	C1156.503296,157.864624 1158.013306,157.645645 1159.759277,157.688782 
z"/>
<path fill="#F6A6D2" opacity="1.000000" stroke="none" 
	d="
M1076.119385,305.998322 
	C1075.887329,304.599731 1075.930054,303.212158 1076.257812,301.409332 
	C1076.734985,300.991699 1076.926880,300.989319 1077.118896,300.986969 
	C1077.245361,302.514252 1077.371704,304.041534 1077.221191,305.789185 
	C1076.760864,306.009491 1076.577515,306.009430 1076.119385,305.998322 
z"/>
<path fill="#F6A6D2" opacity="1.000000" stroke="none" 
	d="
M1212.771484,152.688599 
	C1211.886841,153.278702 1210.778564,153.615814 1209.296387,153.902939 
	C1210.130859,153.380493 1211.339355,152.908035 1212.771484,152.688599 
z"/>
<path fill="#F6A6D2" opacity="1.000000" stroke="none" 
	d="
M1126.795166,160.695892 
	C1126.201416,161.273209 1125.407471,161.607819 1124.265991,161.894745 
	C1124.810547,161.382431 1125.702759,160.917801 1126.795166,160.695892 
z"/>
<path fill="#F06AB3" opacity="1.000000" stroke="none" 
	d="
M981.461914,240.446777 
	C981.522583,240.409164 981.401245,240.484390 981.461914,240.446777 
z"/>
<path fill="#F06AB3" opacity="1.000000" stroke="none" 
	d="
M804.101685,182.145477 
	C804.101685,182.145462 804.074097,182.575745 803.684143,182.819733 
	C799.898376,188.759888 796.502563,194.456039 793.106812,200.152191 
	C793.106812,200.152206 793.081238,200.580185 792.697998,200.833801 
	C790.509277,203.602951 788.443542,205.973862 786.949402,208.662476 
	C783.196777,215.415054 779.702759,222.311264 776.104980,229.149872 
	C776.104980,229.149872 776.079407,229.578857 775.695068,229.834152 
	C771.605957,236.320572 767.608154,242.398041 764.247253,248.809418 
	C749.605103,276.741058 735.160095,304.775970 720.612305,332.757202 
	C718.169067,337.456512 714.821411,340.879395 708.898193,340.122650 
	C708.898193,340.122650 708.869873,340.105927 708.850647,340.117279 
	C712.523682,334.489777 716.495361,329.011169 719.842834,323.174561 
	C724.871399,314.406830 729.680237,305.497131 734.202148,296.457520 
	C753.889221,257.101562 774.531006,218.262375 798.098755,181.079620 
	C809.708130,162.763535 822.024231,144.915848 836.582153,128.658386 
	C845.410889,118.798828 854.782532,109.851807 866.362305,103.437019 
	C868.294067,102.366844 870.915588,102.541679 874.377808,101.939590 
	C866.712769,108.116898 860.384338,113.217026 854.032288,118.665848 
	C853.906128,119.337837 853.716187,119.597008 852.850647,119.891785 
	C848.340698,121.301826 845.489075,123.581245 845.005371,128.005112 
	C845.005371,128.005112 845.000000,128.000000 844.654541,128.027008 
	C842.206055,130.702576 840.103027,133.351120 838.000000,135.999664 
	C838.000000,135.999649 838.000000,136.000000 837.652832,136.026474 
	C835.802185,137.299606 833.986816,138.312332 832.847290,139.831833 
	C826.627441,148.125748 820.397888,156.423386 814.526001,164.963348 
	C810.736755,170.474457 807.555481,176.403671 804.101685,182.145477 
z"/>
<path fill="#F06AB3" opacity="1.000000" stroke="none" 
	d="
M740.659058,180.704742 
	C747.846680,161.898148 754.701843,143.381256 761.931702,125.011909 
	C766.244507,114.054253 771.081177,103.299644 775.848877,92.527443 
	C776.598145,90.834435 778.233093,89.533348 779.458496,88.051041 
	C780.000366,88.236923 780.542175,88.422798 781.083984,88.608673 
	C780.462341,91.246849 780.178833,94.023697 779.163391,96.500404 
	C773.182678,111.087082 766.449402,125.391945 761.062134,140.189499 
	C750.791138,168.401703 740.353149,196.610107 731.708130,225.338776 
	C725.145874,247.146225 721.104004,269.724823 716.270508,292.031708 
	C714.912048,298.300995 714.876343,304.846649 713.909119,311.216187 
	C713.545288,313.611786 712.259766,315.867401 711.394348,318.186798 
	C710.609375,318.069733 709.824402,317.952667 709.039429,317.835602 
	C709.039429,315.237701 708.666931,312.575897 709.099670,310.052185 
	C712.002808,293.119568 714.120178,275.974670 718.315613,259.358978 
	C724.953918,233.068481 733.021484,207.138885 740.659058,180.704742 
z"/>
<path fill="#F06AB3" opacity="1.000000" stroke="none" 
	d="
M852.943970,228.560394 
	C848.294922,233.381973 843.674622,237.845810 839.028381,242.655396 
	C839.002441,243.001129 838.584106,243.084152 838.007202,243.086945 
	C834.092224,245.502899 830.710632,247.858887 827.432678,250.351227 
	C825.537903,251.791855 823.810242,253.452332 822.007385,255.013885 
	C822.007385,255.013870 821.570312,255.069916 821.351807,255.086853 
	C815.818848,256.359528 810.504395,257.615295 805.189941,258.871033 
	C805.086792,258.447937 804.983582,258.024811 804.880432,257.601685 
	C810.278015,255.051453 816.076538,253.106506 821.002380,249.844009 
	C840.184631,237.139267 854.466248,219.919556 865.560669,199.904739 
	C874.887024,183.079681 881.451355,165.150299 885.506226,146.455322 
	C888.607056,132.159012 891.946411,117.566902 885.610107,102.588593 
	C890.452637,105.255005 892.805237,110.747185 893.007751,118.182098 
	C893.601624,139.973083 887.792419,160.434036 880.219849,180.549911 
	C873.963257,197.170029 864.996155,212.188568 853.766174,225.903854 
	C853.284485,226.492249 853.227600,227.428467 852.943970,228.560394 
z"/>
<path fill="#F06AB3" opacity="1.000000" stroke="none" 
	d="
M810.050232,222.683456 
	C810.013550,223.027084 809.600464,223.105850 809.025879,223.098907 
	C807.009521,224.785797 805.567810,226.479614 804.126099,228.173447 
	C804.126099,228.173462 804.098328,228.594742 804.058716,228.802124 
	C798.274963,232.196121 799.537537,238.325745 798.049866,243.292618 
	C797.741089,244.323608 797.702820,245.435654 797.462158,247.023132 
	C793.074463,244.384201 793.658936,240.542877 794.220032,237.194885 
	C795.472900,229.718628 799.167725,223.643494 805.764343,219.511581 
	C808.275330,217.938828 810.545044,215.979980 813.061646,214.417831 
	C814.293335,213.653259 815.838623,213.393967 817.242004,212.905991 
	C817.618835,213.422470 817.995605,213.938950 818.372437,214.455429 
	C815.610596,217.083557 812.848755,219.711700 810.050232,222.683456 
z"/>
<path fill="#EF87BF" opacity="1.000000" stroke="none" 
	d="
M708.985474,340.490112 
	C714.821411,340.879395 718.169067,337.456512 720.612305,332.757202 
	C735.160095,304.775970 749.605103,276.741058 764.247253,248.809418 
	C767.608154,242.398041 771.605957,236.320572 775.655396,230.045319 
	C772.515869,236.968918 769.094788,243.968979 765.535828,250.898254 
	C754.893616,271.619049 744.244751,292.336731 733.497620,313.003143 
	C729.510254,320.670685 725.346069,328.251282 721.069946,335.761871 
	C717.837341,341.439514 713.788818,343.012878 708.985474,340.490112 
z"/>
<path fill="#EF87BF" opacity="1.000000" stroke="none" 
	d="
M804.432556,182.062531 
	C807.555481,176.403671 810.736755,170.474457 814.526001,164.963348 
	C820.397888,156.423386 826.627441,148.125748 832.847290,139.831833 
	C833.986816,138.312332 835.802185,137.299606 837.652832,136.026779 
	C835.397705,139.552261 832.745972,143.068924 830.202271,146.662079 
	C822.567810,157.446365 814.985596,168.267624 807.350708,179.051605 
	C806.602539,180.108459 805.631226,181.007370 804.432556,182.062531 
z"/>
<path fill="#EF87BF" opacity="1.000000" stroke="none" 
	d="
M776.438843,229.062714 
	C779.702759,222.311264 783.196777,215.415054 786.949402,208.662476 
	C788.443542,205.973862 790.509277,203.602951 792.657349,201.044281 
	C789.017090,208.156250 785.073242,215.333481 781.028442,222.453415 
	C779.748535,224.706253 778.198914,226.805832 776.438843,229.062714 
z"/>
<path fill="#EF87BF" opacity="1.000000" stroke="none" 
	d="
M793.439331,200.064941 
	C796.502563,194.456039 799.898376,188.759888 803.645874,183.031891 
	C800.588928,188.659271 797.180359,194.318481 793.439331,200.064941 
z"/>
<path fill="#EF87BF" opacity="1.000000" stroke="none" 
	d="
M845.313171,127.878525 
	C845.489075,123.581245 848.340698,121.301826 852.628784,119.994629 
	C850.536987,122.582481 848.078979,125.167213 845.313171,127.878525 
z"/>
<path fill="#EF87BF" opacity="1.000000" stroke="none" 
	d="
M838.308960,135.872635 
	C840.103027,133.351120 842.206055,130.702576 844.657715,128.029724 
	C842.876831,130.585480 840.747314,133.165543 838.308960,135.872635 
z"/>
<path fill="#EF86BF" opacity="1.000000" stroke="none" 
	d="
M1082.970215,261.000000 
	C1085.070679,253.702332 1087.171143,246.404678 1089.629150,239.049530 
	C1089.613159,241.415588 1089.239502,243.839142 1088.550537,246.663651 
	C1087.872681,247.756195 1087.510254,248.447754 1087.147827,249.139343 
	C1087.054443,250.528625 1086.961060,251.917892 1086.548950,253.685989 
	C1085.869995,254.756668 1085.509888,255.448532 1085.149780,256.140381 
	C1085.060425,257.529999 1084.971191,258.919556 1084.561768,260.634430 
	C1083.817871,260.973145 1083.394043,260.986572 1082.970215,261.000000 
z"/>
<path fill="#F6A6D2" opacity="1.000000" stroke="none" 
	d="
M1101.947998,200.961105 
	C1101.947876,200.961090 1101.967773,200.476501 1102.228027,200.084564 
	C1103.002319,199.133545 1103.516357,198.574432 1104.030396,198.015320 
	C1101.636963,205.321594 1099.243652,212.627884 1096.441284,219.741699 
	C1096.003174,219.353287 1095.974121,219.157379 1095.944824,218.961472 
	C1096.617188,216.886993 1097.289551,214.812515 1098.255371,212.141327 
	C1099.681885,208.016800 1100.814941,204.488953 1101.947998,200.961105 
z"/>
<path fill="#F6A6D2" opacity="1.000000" stroke="none" 
	d="
M1089.869385,237.292969 
	C1090.956299,233.976929 1092.106323,231.013535 1093.607178,227.999054 
	C1092.905518,231.601944 1091.852905,235.255890 1090.452148,238.989014 
	C1090.046875,238.593994 1089.989746,238.119812 1089.869385,237.292969 
z"/>
<path fill="#EF86BF" opacity="1.000000" stroke="none" 
	d="
M1106.995117,185.995209 
	C1108.412476,182.029816 1109.829712,178.064423 1111.637085,174.321686 
	C1112.064453,174.738358 1112.101807,174.932358 1112.139160,175.126373 
	C1111.202637,177.869751 1110.266113,180.613113 1108.929443,183.829102 
	C1108.017944,184.866211 1107.506470,185.430695 1106.995117,185.995209 
z"/>
<path fill="#EF86BF" opacity="1.000000" stroke="none" 
	d="
M1104.053467,197.645416 
	C1103.516357,198.574432 1103.002319,199.133545 1102.239380,199.842346 
	C1103.406006,195.696762 1104.821411,191.401459 1106.577637,187.388672 
	C1106.655151,188.821686 1106.391968,189.972183 1106.128784,191.122681 
	C1105.444702,193.173630 1104.760620,195.224564 1104.053467,197.645416 
z"/>
<path fill="#EF86BF" opacity="1.000000" stroke="none" 
	d="
M1076.930664,293.001587 
	C1077.008423,291.379791 1077.086304,289.758026 1077.781982,288.072754 
	C1078.583008,288.008820 1078.766113,288.008362 1078.949341,288.007874 
	C1078.926636,289.366028 1078.903931,290.724152 1078.536743,292.514587 
	C1077.771606,292.965149 1077.351196,292.983368 1076.930664,293.001587 
z"/>
<path fill="#EF86BF" opacity="1.000000" stroke="none" 
	d="
M1095.609375,219.030731 
	C1095.974121,219.157379 1096.003174,219.353287 1096.096436,219.840790 
	C1095.675049,221.744934 1095.189697,223.357513 1094.410034,224.999054 
	C1093.755371,224.561127 1093.394897,224.094269 1093.004883,223.315796 
	C1093.741577,221.702789 1094.507812,220.401398 1095.609375,219.030731 
z"/>
<path fill="#EF86BF" opacity="1.000000" stroke="none" 
	d="
M1077.135376,300.625061 
	C1076.926880,300.989319 1076.734985,300.991699 1076.254639,300.992554 
	C1076.030518,299.373444 1076.094849,297.755829 1076.778198,296.073730 
	C1077.580444,296.008789 1077.763794,296.008362 1077.947144,296.007935 
	C1077.682007,297.426331 1077.416870,298.844757 1077.135376,300.625061 
z"/>
<path fill="#F6A6D2" opacity="1.000000" stroke="none" 
	d="
M1106.471069,191.019714 
	C1106.391968,189.972183 1106.655151,188.821686 1106.929932,187.313095 
	C1106.941650,186.955002 1106.977661,186.475647 1106.986328,186.235413 
	C1107.506470,185.430695 1108.017944,184.866211 1108.784180,184.160599 
	C1108.297119,186.318558 1107.555298,188.617661 1106.471069,191.019714 
z"/>
<path fill="#F6A6D2" opacity="1.000000" stroke="none" 
	d="
M1082.967285,261.322937 
	C1083.394043,260.986572 1083.817871,260.973145 1084.556641,260.940369 
	C1084.423340,262.801025 1083.974976,264.681030 1082.968506,266.783813 
	C1082.225464,267.001953 1082.040405,266.997253 1081.855347,266.992554 
	C1081.890991,266.549896 1081.926636,266.107239 1082.226318,265.162170 
	C1082.628906,264.085358 1082.767334,263.510956 1082.905884,262.936554 
	C1082.925415,262.506348 1082.944824,262.076111 1082.967285,261.322937 
z"/>
<path fill="#EF86BF" opacity="1.000000" stroke="none" 
	d="
M1114.427002,168.876862 
	C1114.581299,167.721939 1115.032349,166.411621 1115.830811,165.108490 
	C1115.693359,166.317627 1115.208374,167.519547 1114.427002,168.876862 
z"/>
<path fill="#EF86BF" opacity="1.000000" stroke="none" 
	d="
M1077.961426,285.000000 
	C1078.043579,284.030212 1078.125732,283.060394 1078.796387,282.050018 
	C1079.568726,282.009644 1079.752563,282.009827 1079.936279,282.010010 
	C1079.922729,282.733612 1079.909180,283.457184 1079.554199,284.565918 
	C1078.795776,284.967407 1078.378540,284.983704 1077.961426,285.000000 
z"/>
<path fill="#EF86BF" opacity="1.000000" stroke="none" 
	d="
M1078.962891,279.000000 
	C1079.063232,278.021210 1079.163696,277.042450 1079.701416,276.222717 
	C1080.323486,276.673096 1080.577637,276.878845 1080.901123,276.999023 
	C1080.895996,277.422821 1080.890869,277.846649 1080.551514,278.611145 
	C1079.798950,278.967865 1079.380981,278.983917 1078.962891,279.000000 
z"/>
<path fill="#EF86BF" opacity="1.000000" stroke="none" 
	d="
M1079.964600,274.000000 
	C1080.069580,273.022095 1080.174683,272.044159 1080.718506,271.229584 
	C1081.417358,271.595062 1081.677368,271.797211 1081.937500,271.999329 
	C1081.924561,272.423859 1081.911743,272.848389 1081.560547,273.613037 
	C1080.802856,273.968750 1080.383789,273.984375 1079.964600,274.000000 
z"/>
<path fill="#F6A6D2" opacity="1.000000" stroke="none" 
	d="
M1079.966797,274.324371 
	C1080.383789,273.984375 1080.802856,273.968750 1081.532715,273.930450 
	C1081.719971,274.805603 1081.596436,275.703491 1081.187012,276.800171 
	C1080.577637,276.878845 1080.323486,276.673096 1080.016479,276.161926 
	C1079.919312,275.510956 1079.944092,275.079865 1079.966797,274.324371 
z"/>
<path fill="#F6A6D2" opacity="1.000000" stroke="none" 
	d="
M1082.215332,271.795532 
	C1081.677368,271.797211 1081.417358,271.595062 1081.034790,271.171631 
	C1080.932251,270.515961 1080.952026,270.081573 1081.290527,269.316925 
	C1082.029053,268.965271 1082.449097,268.943909 1082.869019,268.922546 
	C1082.743774,269.812256 1082.618408,270.701996 1082.215332,271.795532 
z"/>
<path fill="#F6A6D2" opacity="1.000000" stroke="none" 
	d="
M1078.966309,279.373840 
	C1079.380981,278.983917 1079.798950,278.967865 1080.526733,278.928162 
	C1080.722412,279.802155 1080.608398,280.699829 1080.215332,281.803772 
	C1079.752563,282.009827 1079.568726,282.009644 1079.107666,281.997040 
	C1078.876709,281.239014 1078.923096,280.493378 1078.966309,279.373840 
z"/>
<path fill="#EF86BF" opacity="1.000000" stroke="none" 
	d="
M1082.904907,268.603455 
	C1082.449097,268.943909 1082.029053,268.965271 1081.292236,268.990356 
	C1081.084595,268.348907 1081.193970,267.703735 1081.579346,267.025543 
	C1082.040405,266.997253 1082.225464,267.001953 1082.687988,267.002716 
	C1082.957153,267.427307 1082.948975,267.855835 1082.904907,268.603455 
z"/>
<path fill="#F6A6D2" opacity="1.000000" stroke="none" 
	d="
M1077.965332,285.374084 
	C1078.378540,284.983704 1078.795776,284.967407 1079.521729,284.926514 
	C1079.721313,285.798798 1079.611938,286.695618 1079.225952,287.800171 
	C1078.766113,288.008362 1078.583008,288.008820 1078.123779,287.998474 
	C1077.888184,287.241211 1077.928711,286.494690 1077.965332,285.374084 
z"/>
<path fill="#F6A6D2" opacity="1.000000" stroke="none" 
	d="
M1078.223633,295.799622 
	C1077.763794,296.008362 1077.580444,296.008789 1077.120850,295.998230 
	C1076.881348,295.241119 1076.918213,294.495026 1076.942871,293.375244 
	C1077.351196,292.983368 1077.771606,292.965149 1078.502808,292.920532 
	C1078.708984,293.793243 1078.604492,294.692261 1078.223633,295.799622 
z"/>
<path fill="#F6A6D2" opacity="1.000000" stroke="none" 
	d="
M1085.456055,256.054779 
	C1085.509888,255.448532 1085.869995,254.756668 1086.540283,253.991486 
	C1086.487549,254.601822 1086.124878,255.285507 1085.456055,256.054779 
z"/>
<path fill="#F6A6D2" opacity="1.000000" stroke="none" 
	d="
M1087.454346,249.054489 
	C1087.510254,248.447754 1087.872681,247.756195 1088.546387,246.992889 
	C1088.491821,247.604004 1088.126343,248.286819 1087.454346,249.054489 
z"/>
<path fill="#F6A6D2" opacity="1.000000" stroke="none" 
	d="
M1112.455078,175.040344 
	C1112.101807,174.932358 1112.064453,174.738358 1111.984375,174.250519 
	C1112.371948,173.612823 1112.802002,173.268982 1113.506104,172.863403 
	C1113.443726,173.519211 1113.107300,174.236755 1112.455078,175.040344 
z"/>
<path fill="#EF86BF" opacity="1.000000" stroke="none" 
	d="
M1244.328125,283.881897 
	C1245.839844,280.974762 1247.438843,277.769653 1249.523071,274.919281 
	C1254.503174,268.108551 1259.670532,261.432709 1264.868164,254.785278 
	C1265.744995,253.663925 1267.150391,252.955841 1268.659912,252.032043 
	C1264.696289,257.805695 1260.447266,263.652405 1256.052856,269.387726 
	C1252.334595,274.240479 1248.448120,278.964264 1244.328125,283.881897 
z"/>
<path fill="#EF86BF" opacity="1.000000" stroke="none" 
	d="
M1269.315430,251.874695 
	C1272.443237,247.689697 1275.879150,243.372910 1279.663208,239.032959 
	C1276.548828,243.254166 1273.086182,247.498535 1269.315430,251.874695 
z"/>
<path fill="#EF86BF" opacity="1.000000" stroke="none" 
	d="
M1238.454346,291.084839 
	C1239.853149,288.790710 1241.588135,286.427826 1243.673340,284.042328 
	C1242.279175,286.351837 1240.534912,288.683990 1238.454346,291.084839 
z"/>
<path fill="#EF86BF" opacity="1.000000" stroke="none" 
	d="
M1280.316284,238.878799 
	C1281.106934,237.360794 1282.204102,235.712418 1283.658447,234.036682 
	C1282.884644,235.589020 1281.753784,237.168716 1280.316284,238.878799 
z"/>
<path fill="#EF86BF" opacity="1.000000" stroke="none" 
	d="
M1094.318115,324.880280 
	C1094.513794,323.671021 1094.736084,322.118652 1095.566040,321.029266 
	C1109.370605,302.910217 1123.227417,284.830780 1137.136353,266.791504 
	C1139.721313,263.438873 1142.583252,260.299713 1145.667725,257.036011 
	C1141.154663,264.038177 1136.485596,271.210999 1131.386597,278.063843 
	C1121.329712,291.579742 1111.074829,304.949249 1100.800415,318.301331 
	C1098.995850,320.646484 1096.697754,322.611816 1094.318115,324.880280 
z"/>
<path fill="#EF86BF" opacity="1.000000" stroke="none" 
	d="
M1092.332275,326.978607 
	C1092.459106,326.363617 1092.908569,325.715881 1093.683838,325.038147 
	C1093.558228,325.654053 1093.106689,326.299957 1092.332275,326.978607 
z"/>
<path fill="#EF87BF" opacity="1.000000" stroke="none" 
	d="
M804.457764,228.102051 
	C805.567810,226.479614 807.009521,224.785797 808.816040,223.111969 
	C807.717041,224.764877 806.253235,226.397781 804.457764,228.102051 
z"/>
<path fill="#EF87BF" opacity="1.000000" stroke="none" 
	d="
M822.366699,254.990631 
	C823.810242,253.452332 825.537903,251.791855 827.432678,250.351227 
	C830.710632,247.858887 834.092224,245.502899 837.794617,243.103638 
	C833.014587,247.067490 827.870361,251.017441 822.366699,254.990631 
z"/>
<path fill="#EF86BF" opacity="1.000000" stroke="none" 
	d="
M1082.623535,262.985962 
	C1082.767334,263.510956 1082.628906,264.085358 1082.238403,264.829346 
	C1082.104614,264.344360 1082.223022,263.689850 1082.623535,262.985962 
z"/>
<path fill="#EF86BF" opacity="1.000000" stroke="none" 
	d="
M1101.595215,201.037170 
	C1100.814941,204.488953 1099.681885,208.016800 1098.270996,211.769135 
	C1099.076172,208.366821 1100.159424,204.740036 1101.595215,201.037170 
z"/>
</svg>